<svg xmlns="http://www.w3.org/2000/svg" xmlns:xlink="http://www.w3.org/1999/xlink" contentStyleType="text/css" data-diagram-type="ACTIVITY" height="1160px" preserveAspectRatio="none" style="width:632px;height:1160px;" version="1.1" viewBox="0 0 632 1160" width="632px" zoomAndPan="magnify"><?plantuml 1.2026.6?><defs/><g><rect fill="#EEF2FF" height="21.1992" style="stroke:#EEF2FF;stroke-width:1;" width="585.7793" x="20" y="17.2969"/><ellipse cx="191.54" cy="53.4961" fill="#222222" rx="10" ry="10" style="stroke:#222222;stroke-width:1;"/><rect fill="#F6F8FA" height="48.2656" rx="12.5" ry="12.5" style="stroke:#57606A;stroke-width:0.5;" width="264.2129" x="59.4336" y="83.4961"/><text fill="#000000" font-family="sans-serif" font-size="12" lengthAdjust="spacing" textLength="244.2129" x="69.4336" y="105.0977">Enter student code, first name, last name,</text><text fill="#000000" font-family="sans-serif" font-size="12" lengthAdjust="spacing" textLength="137.0684" x="69.4336" y="119.2305">email, and date of birth</text><ellipse cx="191.54" cy="280.3721" fill="none" rx="11" ry="11" style="stroke:#222222;stroke-width:1;"/><ellipse cx="191.54" cy="280.3721" fill="#222222" rx="6" ry="6" style="stroke:#222222;stroke-width:1;"/><rect fill="#F6F8FA" height="34.1328" rx="12.5" ry="12.5" style="stroke:#57606A;stroke-width:0.5;" width="208.0625" x="87.5088" y="381.8496"/><text fill="#000000" font-family="sans-serif" font-size="12" lengthAdjust="spacing" textLength="188.0625" x="97.5088" y="403.4512">Reject &#8212; invalid/duplicate email</text><ellipse cx="191.54" cy="455.416" fill="none" rx="11" ry="11" style="stroke:#222222;stroke-width:1;"/><ellipse cx="191.54" cy="455.416" fill="#222222" rx="6" ry="6" style="stroke:#222222;stroke-width:1;"/><polygon fill="#EEF2FF" points="108.4224,333.3721,274.6577,333.3721,286.6577,345.3721,274.6577,357.3721,108.4224,357.3721,96.4224,345.3721,108.4224,333.3721" style="stroke:#3730A3;stroke-width:0.5;stroke-linejoin:miter;stroke-miterlimit:10;"/><text fill="#000000" font-family="sans-serif" font-size="11" lengthAdjust="spacing" textLength="13.5835" x="195.54" y="368.0068">no</text><text fill="#000000" font-family="sans-serif" font-size="11" lengthAdjust="spacing" textLength="166.2354" x="108.4224" y="349.5293">Email unique and well-formed?</text><rect fill="#F6F8FA" height="34.1328" rx="12.5" ry="12.5" style="stroke:#57606A;stroke-width:0.5;" width="142.707" x="120.1865" y="556.8936"/><text fill="#000000" font-family="sans-serif" font-size="12" lengthAdjust="spacing" textLength="122.707" x="130.1865" y="578.4951">Reject &#8212; blank name</text><ellipse cx="191.54" cy="630.46" fill="none" rx="11" ry="11" style="stroke:#222222;stroke-width:1;"/><ellipse cx="191.54" cy="630.46" fill="#222222" rx="6" ry="6" style="stroke:#222222;stroke-width:1;"/><polygon fill="#EEF2FF" points="108.4546,508.416,274.6255,508.416,286.6255,520.416,274.6255,532.416,108.4546,532.416,96.4546,520.416,108.4546,508.416" style="stroke:#3730A3;stroke-width:0.5;stroke-linejoin:miter;stroke-miterlimit:10;"/><text fill="#000000" font-family="sans-serif" font-size="11" lengthAdjust="spacing" textLength="13.5835" x="195.54" y="543.0508">no</text><text fill="#000000" font-family="sans-serif" font-size="11" lengthAdjust="spacing" textLength="166.1709" x="108.4546" y="524.5732">First and last name non-blank?</text><rect fill="#F6F8FA" height="34.1328" rx="12.5" ry="12.5" style="stroke:#57606A;stroke-width:0.5;" width="189.4766" x="96.8018" y="731.9375"/><text fill="#000000" font-family="sans-serif" font-size="12" lengthAdjust="spacing" textLength="169.4766" x="106.8018" y="753.5391">Reject &#8212; invalid date of birth</text><ellipse cx="191.54" cy="805.5039" fill="none" rx="11" ry="11" style="stroke:#222222;stroke-width:1;"/><ellipse cx="191.54" cy="805.5039" fill="#222222" rx="6" ry="6" style="stroke:#222222;stroke-width:1;"/><polygon fill="#EEF2FF" points="141.0222,683.46,242.0579,683.46,254.0579,695.46,242.0579,707.46,141.0222,707.46,129.0222,695.46,141.0222,683.46" style="stroke:#3730A3;stroke-width:0.5;stroke-linejoin:miter;stroke-miterlimit:10;"/><text fill="#000000" font-family="sans-serif" font-size="11" lengthAdjust="spacing" textLength="13.5835" x="195.54" y="718.0947">no</text><text fill="#000000" font-family="sans-serif" font-size="11" lengthAdjust="spacing" textLength="101.0356" x="141.0222" y="699.6172">Date of birth valid?</text><rect fill="#F6F8FA" height="34.1328" rx="12.5" ry="12.5" style="stroke:#57606A;stroke-width:0.5;" width="147.0957" x="117.9922" y="858.5039"/><text fill="#000000" font-family="sans-serif" font-size="12" lengthAdjust="spacing" textLength="127.0957" x="127.9922" y="880.1055">Create student record</text><rect fill="#F6F8FA" height="62.3984" rx="12.5" ry="12.5" style="stroke:#57606A;stroke-width:0.5;" width="288.8633" x="47.1084" y="912.6367"/><text fill="#000000" font-family="sans-serif" font-size="12" lengthAdjust="spacing" textLength="116.127" x="57.1084" y="934.2383">Create user account</text><text fill="#000000" font-family="sans-serif" font-size="12" lengthAdjust="spacing" textLength="268.8633" x="57.1084" y="948.3711">(username = email, random 8-char password,</text><text fill="#000000" font-family="sans-serif" font-size="12" lengthAdjust="spacing" textLength="185.0391" x="57.1084" y="962.5039">must-change-password = true)</text><rect fill="#F6F8FA" height="34.1328" rx="12.5" ry="12.5" style="stroke:#57606A;stroke-width:0.5;" width="331.0801" x="26" y="995.0352"/><text fill="#000000" font-family="sans-serif" font-size="12" lengthAdjust="spacing" textLength="311.0801" x="36" y="1016.6367">Return student record + username + initial password</text><rect fill="#F6F8FA" height="48.2656" rx="12.5" ry="12.5" style="stroke:#57606A;stroke-width:0.5;" width="230.9961" x="76.042" y="1049.168"/><text fill="#000000" font-family="sans-serif" font-size="12" lengthAdjust="spacing" textLength="210.9961" x="86.042" y="1070.7695">Receive confirmation with username</text><text fill="#000000" font-family="sans-serif" font-size="12" lengthAdjust="spacing" textLength="117.1523" x="86.042" y="1084.9023">and initial password</text><ellipse cx="191.54" cy="1128.4336" fill="none" rx="11" ry="11" style="stroke:#222222;stroke-width:1;"/><ellipse cx="191.54" cy="1128.4336" fill="#222222" rx="6" ry="6" style="stroke:#222222;stroke-width:1;"/><line style="stroke:#57606A;stroke-width:1.5;" x1="20" x2="20" y1="17.2969" y2="1139.4336"/><rect fill="#F6F8FA" height="34.1328" rx="12.5" ry="12.5" style="stroke:#57606A;stroke-width:0.5;" width="207.8516" x="367.0801" y="200.2393"/><text fill="#000000" font-family="sans-serif" font-size="12" lengthAdjust="spacing" textLength="187.8516" x="377.0801" y="221.8408">Reject &#8212; duplicate student code</text><polygon fill="#EEF2FF" points="413.699,151.7617,528.3127,151.7617,540.3127,163.7617,528.3127,175.7617,413.699,175.7617,401.699,163.7617,413.699,151.7617" style="stroke:#3730A3;stroke-width:0.5;stroke-linejoin:miter;stroke-miterlimit:10;"/><text fill="#000000" font-family="sans-serif" font-size="11" lengthAdjust="spacing" textLength="13.5835" x="475.0059" y="186.3965">no</text><text fill="#000000" font-family="sans-serif" font-size="11" lengthAdjust="spacing" textLength="114.6138" x="413.699" y="167.9189">Student code unique?</text><line style="stroke:#57606A;stroke-width:1.5;" x1="361.0801" x2="361.0801" y1="17.2969" y2="1139.4336"/><line style="stroke:#57606A;stroke-width:1.5;" x1="603.9316" x2="603.9316" y1="17.2969" y2="1139.4336"/><line style="stroke:#181818;stroke-width:1;" x1="191.54" x2="191.54" y1="63.4961" y2="83.4961"/><polygon fill="#181818" points="187.54,73.4961,191.54,83.4961,195.54,73.4961,191.54,77.4961" style="stroke:#181818;stroke-width:1;stroke-linejoin:miter;stroke-miterlimit:10;"/><line style="stroke:#181818;stroke-width:1;" x1="191.54" x2="191.54" y1="415.9824" y2="444.416"/><polygon fill="#181818" points="187.54,434.416,191.54,444.416,195.54,434.416,191.54,438.416" style="stroke:#181818;stroke-width:1;stroke-linejoin:miter;stroke-miterlimit:10;"/><line style="stroke:#181818;stroke-width:1;" x1="191.54" x2="191.54" y1="357.3721" y2="381.8496"/><polygon fill="#181818" points="187.54,371.8496,191.54,381.8496,195.54,371.8496,191.54,375.8496" style="stroke:#181818;stroke-width:1;stroke-linejoin:miter;stroke-miterlimit:10;"/><line style="stroke:#181818;stroke-width:1;" x1="286.6577" x2="305.5713" y1="345.3721" y2="345.3721"/><polygon fill="#181818" points="301.5713,414.416,305.5713,424.416,309.5713,414.416,305.5713,418.416" style="stroke:#181818;stroke-width:1;stroke-linejoin:miter;stroke-miterlimit:10;"/><line style="stroke:#181818;stroke-width:1;" x1="305.5713" x2="305.5713" y1="345.3721" y2="488.416"/><line style="stroke:#181818;stroke-width:1;" x1="305.5713" x2="191.54" y1="488.416" y2="488.416"/><line style="stroke:#181818;stroke-width:1;" x1="191.54" x2="191.54" y1="488.416" y2="508.416"/><polygon fill="#181818" points="187.54,498.416,191.54,508.416,195.54,498.416,191.54,502.416" style="stroke:#181818;stroke-width:1;stroke-linejoin:miter;stroke-miterlimit:10;"/><line style="stroke:#181818;stroke-width:1;" x1="191.54" x2="191.54" y1="591.0264" y2="619.46"/><polygon fill="#181818" points="187.54,609.46,191.54,619.46,195.54,609.46,191.54,613.46" style="stroke:#181818;stroke-width:1;stroke-linejoin:miter;stroke-miterlimit:10;"/><line style="stroke:#181818;stroke-width:1;" x1="191.54" x2="191.54" y1="532.416" y2="556.8936"/><polygon fill="#181818" points="187.54,546.8936,191.54,556.8936,195.54,546.8936,191.54,550.8936" style="stroke:#181818;stroke-width:1;stroke-linejoin:miter;stroke-miterlimit:10;"/><line style="stroke:#181818;stroke-width:1;" x1="286.6255" x2="298.6255" y1="520.416" y2="520.416"/><polygon fill="#181818" points="294.6255,589.46,298.6255,599.46,302.6255,589.46,298.6255,593.46" style="stroke:#181818;stroke-width:1;stroke-linejoin:miter;stroke-miterlimit:10;"/><line style="stroke:#181818;stroke-width:1;" x1="298.6255" x2="298.6255" y1="520.416" y2="663.46"/><line style="stroke:#181818;stroke-width:1;" x1="298.6255" x2="191.54" y1="663.46" y2="663.46"/><line style="stroke:#181818;stroke-width:1;" x1="191.54" x2="191.54" y1="663.46" y2="683.46"/><polygon fill="#181818" points="187.54,673.46,191.54,683.46,195.54,673.46,191.54,677.46" style="stroke:#181818;stroke-width:1;stroke-linejoin:miter;stroke-miterlimit:10;"/><line style="stroke:#181818;stroke-width:1;" x1="191.54" x2="191.54" y1="766.0703" y2="794.5039"/><polygon fill="#181818" points="187.54,784.5039,191.54,794.5039,195.54,784.5039,191.54,788.5039" style="stroke:#181818;stroke-width:1;stroke-linejoin:miter;stroke-miterlimit:10;"/><line style="stroke:#181818;stroke-width:1;" x1="191.54" x2="191.54" y1="707.46" y2="731.9375"/><polygon fill="#181818" points="187.54,721.9375,191.54,731.9375,195.54,721.9375,191.54,725.9375" style="stroke:#181818;stroke-width:1;stroke-linejoin:miter;stroke-miterlimit:10;"/><line style="stroke:#181818;stroke-width:1;" x1="254.0579" x2="296.2783" y1="695.46" y2="695.46"/><polygon fill="#181818" points="292.2783,764.5039,296.2783,774.5039,300.2783,764.5039,296.2783,768.5039" style="stroke:#181818;stroke-width:1;stroke-linejoin:miter;stroke-miterlimit:10;"/><line style="stroke:#181818;stroke-width:1;" x1="296.2783" x2="296.2783" y1="695.46" y2="838.5039"/><line style="stroke:#181818;stroke-width:1;" x1="296.2783" x2="191.54" y1="838.5039" y2="838.5039"/><line style="stroke:#181818;stroke-width:1;" x1="191.54" x2="191.54" y1="838.5039" y2="858.5039"/><polygon fill="#181818" points="187.54,848.5039,191.54,858.5039,195.54,848.5039,191.54,852.5039" style="stroke:#181818;stroke-width:1;stroke-linejoin:miter;stroke-miterlimit:10;"/><line style="stroke:#181818;stroke-width:1;" x1="191.54" x2="191.54" y1="892.6367" y2="912.6367"/><polygon fill="#181818" points="187.54,902.6367,191.54,912.6367,195.54,902.6367,191.54,906.6367" style="stroke:#181818;stroke-width:1;stroke-linejoin:miter;stroke-miterlimit:10;"/><line style="stroke:#181818;stroke-width:1;" x1="191.54" x2="191.54" y1="975.0352" y2="995.0352"/><polygon fill="#181818" points="187.54,985.0352,191.54,995.0352,195.54,985.0352,191.54,989.0352" style="stroke:#181818;stroke-width:1;stroke-linejoin:miter;stroke-miterlimit:10;"/><line style="stroke:#181818;stroke-width:1;" x1="191.54" x2="191.54" y1="1029.168" y2="1049.168"/><polygon fill="#181818" points="187.54,1039.168,191.54,1049.168,195.54,1039.168,191.54,1043.168" style="stroke:#181818;stroke-width:1;stroke-linejoin:miter;stroke-miterlimit:10;"/><line style="stroke:#181818;stroke-width:1;" x1="191.54" x2="191.54" y1="1097.4336" y2="1117.4336"/><polygon fill="#181818" points="187.54,1107.4336,191.54,1117.4336,195.54,1107.4336,191.54,1111.4336" style="stroke:#181818;stroke-width:1;stroke-linejoin:miter;stroke-miterlimit:10;"/><line style="stroke:#181818;stroke-width:1;" x1="471.0059" x2="471.0059" y1="175.7617" y2="200.2393"/><polygon fill="#181818" points="467.0059,190.2393,471.0059,200.2393,475.0059,190.2393,471.0059,194.2393" style="stroke:#181818;stroke-width:1;stroke-linejoin:miter;stroke-miterlimit:10;"/><line style="stroke:#181818;stroke-width:1;" x1="540.3127" x2="584.9316" y1="163.7617" y2="163.7617"/><polygon fill="#181818" points="580.9316,241.5557,584.9316,251.5557,588.9316,241.5557,584.9316,245.5557" style="stroke:#181818;stroke-width:1;stroke-linejoin:miter;stroke-miterlimit:10;"/><line style="stroke:#181818;stroke-width:1;" x1="584.9316" x2="584.9316" y1="163.7617" y2="318.3721"/><line style="stroke:#181818;stroke-width:1;" x1="584.9316" x2="191.54" y1="318.3721" y2="318.3721"/><line style="stroke:#181818;stroke-width:1;" x1="191.54" x2="191.54" y1="318.3721" y2="333.3721"/><polygon fill="#181818" points="187.54,323.3721,191.54,333.3721,195.54,323.3721,191.54,327.3721" style="stroke:#181818;stroke-width:1;stroke-linejoin:miter;stroke-miterlimit:10;"/><line style="stroke:#181818;stroke-width:1;" x1="471.0059" x2="471.0059" y1="234.3721" y2="251.8721"/><line style="stroke:#181818;stroke-width:1;" x1="471.0059" x2="191.54" y1="251.8721" y2="251.8721"/><line style="stroke:#181818;stroke-width:1;" x1="191.54" x2="191.54" y1="251.8721" y2="269.3721"/><polygon fill="#181818" points="187.54,259.3721,191.54,269.3721,195.54,259.3721,191.54,263.3721" style="stroke:#181818;stroke-width:1;stroke-linejoin:miter;stroke-miterlimit:10;"/><line style="stroke:#181818;stroke-width:1;" x1="191.54" x2="191.54" y1="131.7617" y2="136.7617"/><line style="stroke:#181818;stroke-width:1;" x1="191.54" x2="471.0059" y1="136.7617" y2="136.7617"/><line style="stroke:#181818;stroke-width:1;" x1="471.0059" x2="471.0059" y1="136.7617" y2="151.7617"/><polygon fill="#181818" points="467.0059,141.7617,471.0059,151.7617,475.0059,141.7617,471.0059,145.7617" style="stroke:#181818;stroke-width:1;stroke-linejoin:miter;stroke-miterlimit:10;"/><text fill="#000000" font-family="sans-serif" font-size="18" lengthAdjust="spacing" textLength="78.416" x="151.332" y="34.6992">Registrar</text><text fill="#000000" font-family="sans-serif" font-size="18" lengthAdjust="spacing" textLength="61.8398" x="451.5859" y="34.6992">System</text><?plantuml-src XLFRRjf047ttLupK5r226XMLHA2gIXFy0QIFl2oxOvZYdQMxOr1K8lKZ-eNzaevTS5tImjjwBkUScJbEQ-ADYSR3mjZrCeQAtKCeGmI9XfEca2LBRPMnGbkIP_YM0NmwQNcJZ_Ax_BxEXEWm7gBlRqStephwICO7Tg_QfjFyNPvt2hhTmzlXpVqmU-c8I3lofM7yBUAVL9z9IlmVqKkMxMUufAGpndsMn4J9nbCMZ92aSZeosE3m6WgAIO2DrtTfZiyvepTKNeDX1yu8GYXWGL5M4qL-Uaw2VfzH0Rsd3XfKJ5yh_DW7MI53ZqDVXOvd-0MjmC_lFy1Lcv9iZTTLCT6ghbpGRDXao8wAXcHQYpcWDv9sM9Q38aIFxWmRyTQKvDx-OMsckaYNDpkfUTgD00SUBFGawpDyJRuflqZnsDqfD38l3t9wYJCSuuU8tJL7jEgYIHklaZh1MAlMaJdtwizcp0zmEBp-6ovuk1lObOcmCIdj542DuQiaTP2NE3Y6jKrYXNt5dw5KaKzuuGfQXYkTXeHCsO9E_ZQhGbYaBQerMDtfZL1Ws97kwGWov_euht7g1Vm2?></g></svg>