<svg xmlns="http://www.w3.org/2000/svg" xmlns:xlink="http://www.w3.org/1999/xlink" contentStyleType="text/css" data-diagram-type="ACTIVITY" height="581px" preserveAspectRatio="none" style="width:752px;height:581px;" version="1.1" viewBox="0 0 752 581" width="752px" zoomAndPan="magnify"><?plantuml 1.2026.6?><defs/><g><rect fill="#EEF2FF" height="21.1992" style="stroke:#EEF2FF;stroke-width:1;" width="705.4043" x="20" y="17.2969"/><ellipse cx="173.9033" cy="53.4961" fill="#222222" rx="10" ry="10" style="stroke:#222222;stroke-width:1;"/><rect fill="#F6F8FA" height="34.1328" rx="12.5" ry="12.5" style="stroke:#57606A;stroke-width:0.5;" width="295.8066" x="26" y="83.4961"/><text fill="#000000" font-family="sans-serif" font-size="12" lengthAdjust="spacing" textLength="275.8066" x="36" y="105.0977">Enter student code, or name/email search term</text><rect fill="#F6F8FA" height="34.1328" rx="12.5" ry="12.5" style="stroke:#57606A;stroke-width:0.5;" width="90.2773" x="128.7646" y="324.0273"/><text fill="#000000" font-family="sans-serif" font-size="12" lengthAdjust="spacing" textLength="70.2773" x="138.7646" y="345.6289">View results</text><rect fill="#F6F8FA" height="48.2656" rx="12.5" ry="12.5" style="stroke:#57606A;stroke-width:0.5;" width="140.9434" x="103.4316" y="426.6377"/><text fill="#000000" font-family="sans-serif" font-size="12" lengthAdjust="spacing" textLength="110.1035" x="113.4316" y="448.2393">Continue at UC-17</text><text fill="#000000" font-family="sans-serif" font-size="12" lengthAdjust="spacing" textLength="120.9434" x="113.4316" y="462.3721">(View Student Detail)</text><polygon fill="#EEF2FF" points="127.5132,378.1602,220.2935,378.1602,232.2935,390.1602,220.2935,402.1602,127.5132,402.1602,115.5132,390.1602,127.5132,378.1602" style="stroke:#3730A3;stroke-width:0.5;stroke-linejoin:miter;stroke-miterlimit:10;"/><text fill="#000000" font-family="sans-serif" font-size="11" lengthAdjust="spacing" textLength="17.4829" x="177.9033" y="412.7949">yes</text><text fill="#000000" font-family="sans-serif" font-size="11" lengthAdjust="spacing" textLength="92.7803" x="127.5132" y="394.3174">Select one result?</text><text fill="#000000" font-family="sans-serif" font-size="11" lengthAdjust="spacing" textLength="13.5835" x="232.2935" y="387.8398">no</text><polygon fill="#EEF2FF" points="173.9033,494.9033,185.9033,506.9033,173.9033,518.9033,161.9033,506.9033,173.9033,494.9033" style="stroke:#3730A3;stroke-width:0.5;stroke-linejoin:miter;stroke-miterlimit:10;"/><ellipse cx="173.9033" cy="549.9033" fill="none" rx="11" ry="11" style="stroke:#222222;stroke-width:1;"/><ellipse cx="173.9033" cy="549.9033" fill="#222222" rx="6" ry="6" style="stroke:#222222;stroke-width:1;"/><line style="stroke:#57606A;stroke-width:1.5;" x1="20" x2="20" y1="17.2969" y2="560.9033"/><rect fill="#F6F8FA" height="34.1328" rx="12.5" ry="12.5" style="stroke:#57606A;stroke-width:0.5;" width="228.377" x="387.2939" y="137.6289"/><text fill="#000000" font-family="sans-serif" font-size="12" lengthAdjust="spacing" textLength="208.377" x="397.2939" y="159.2305">Look up matching student record(s)</text><polygon fill="#EEF2FF" points="453.4514,191.7617,549.5134,191.7617,561.5134,203.7617,549.5134,215.7617,453.4514,215.7617,441.4514,203.7617,453.4514,191.7617" style="stroke:#3730A3;stroke-width:0.5;stroke-linejoin:miter;stroke-miterlimit:10;"/><text fill="#000000" font-family="sans-serif" font-size="11" lengthAdjust="spacing" textLength="96.062" x="453.4514" y="207.9189">Any match found?</text><text fill="#000000" font-family="sans-serif" font-size="11" lengthAdjust="spacing" textLength="13.5835" x="427.8679" y="201.4414">no</text><text fill="#000000" font-family="sans-serif" font-size="11" lengthAdjust="spacing" textLength="17.4829" x="561.5134" y="201.4414">yes</text><rect fill="#F6F8FA" height="34.1328" rx="12.5" ry="12.5" style="stroke:#57606A;stroke-width:0.5;" width="135.4766" x="331.8066" y="225.7617"/><text fill="#000000" font-family="sans-serif" font-size="12" lengthAdjust="spacing" textLength="115.4766" x="341.8066" y="247.3633">Return empty result</text><rect fill="#F6F8FA" height="48.2656" rx="12.5" ry="12.5" style="stroke:#57606A;stroke-width:0.5;" width="232.2734" x="487.2832" y="225.7617"/><text fill="#000000" font-family="sans-serif" font-size="12" lengthAdjust="spacing" textLength="212.2734" x="497.2832" y="247.3633">Return matching student summaries</text><text fill="#000000" font-family="sans-serif" font-size="12" lengthAdjust="spacing" textLength="114.1641" x="497.2832" y="261.4961">(code, name, email)</text><polygon fill="#EEF2FF" points="501.4824,280.0273,513.4824,292.0273,501.4824,304.0273,489.4824,292.0273,501.4824,280.0273" style="stroke:#3730A3;stroke-width:0.5;stroke-linejoin:miter;stroke-miterlimit:10;"/><line style="stroke:#57606A;stroke-width:1.5;" x1="325.8066" x2="325.8066" y1="17.2969" y2="560.9033"/><line style="stroke:#57606A;stroke-width:1.5;" x1="723.5566" x2="723.5566" y1="17.2969" y2="560.9033"/><line style="stroke:#181818;stroke-width:1;" x1="173.9033" x2="173.9033" y1="63.4961" y2="83.4961"/><polygon fill="#181818" points="169.9033,73.4961,173.9033,83.4961,177.9033,73.4961,173.9033,77.4961" style="stroke:#181818;stroke-width:1;stroke-linejoin:miter;stroke-miterlimit:10;"/><line style="stroke:#181818;stroke-width:1;" x1="173.9033" x2="173.9033" y1="402.1602" y2="426.6377"/><polygon fill="#181818" points="169.9033,416.6377,173.9033,426.6377,177.9033,416.6377,173.9033,420.6377" style="stroke:#181818;stroke-width:1;stroke-linejoin:miter;stroke-miterlimit:10;"/><line style="stroke:#181818;stroke-width:1;" x1="232.2935" x2="254.375" y1="390.1602" y2="390.1602"/><polygon fill="#181818" points="250.375,440.7705,254.375,450.7705,258.375,440.7705,254.375,444.7705" style="stroke:#181818;stroke-width:1;stroke-linejoin:miter;stroke-miterlimit:10;"/><line style="stroke:#181818;stroke-width:1;" x1="254.375" x2="254.375" y1="390.1602" y2="506.9033"/><line style="stroke:#181818;stroke-width:1;" x1="254.375" x2="185.9033" y1="506.9033" y2="506.9033"/><polygon fill="#181818" points="195.9033,502.9033,185.9033,506.9033,195.9033,510.9033,191.9033,506.9033" style="stroke:#181818;stroke-width:1;stroke-linejoin:miter;stroke-miterlimit:10;"/><line style="stroke:#181818;stroke-width:1;" x1="173.9033" x2="173.9033" y1="474.9033" y2="494.9033"/><polygon fill="#181818" points="169.9033,484.9033,173.9033,494.9033,177.9033,484.9033,173.9033,488.9033" style="stroke:#181818;stroke-width:1;stroke-linejoin:miter;stroke-miterlimit:10;"/><line style="stroke:#181818;stroke-width:1;" x1="173.9033" x2="173.9033" y1="358.1602" y2="378.1602"/><polygon fill="#181818" points="169.9033,368.1602,173.9033,378.1602,177.9033,368.1602,173.9033,372.1602" style="stroke:#181818;stroke-width:1;stroke-linejoin:miter;stroke-miterlimit:10;"/><line style="stroke:#181818;stroke-width:1;" x1="173.9033" x2="173.9033" y1="518.9033" y2="538.9033"/><polygon fill="#181818" points="169.9033,528.9033,173.9033,538.9033,177.9033,528.9033,173.9033,532.9033" style="stroke:#181818;stroke-width:1;stroke-linejoin:miter;stroke-miterlimit:10;"/><line style="stroke:#181818;stroke-width:1;" x1="441.4514" x2="399.5449" y1="203.7617" y2="203.7617"/><line style="stroke:#181818;stroke-width:1;" x1="399.5449" x2="399.5449" y1="203.7617" y2="225.7617"/><polygon fill="#181818" points="395.5449,215.7617,399.5449,225.7617,403.5449,215.7617,399.5449,219.7617" style="stroke:#181818;stroke-width:1;stroke-linejoin:miter;stroke-miterlimit:10;"/><line style="stroke:#181818;stroke-width:1;" x1="561.5134" x2="603.4199" y1="203.7617" y2="203.7617"/><line style="stroke:#181818;stroke-width:1;" x1="603.4199" x2="603.4199" y1="203.7617" y2="225.7617"/><polygon fill="#181818" points="599.4199,215.7617,603.4199,225.7617,607.4199,215.7617,603.4199,219.7617" style="stroke:#181818;stroke-width:1;stroke-linejoin:miter;stroke-miterlimit:10;"/><line style="stroke:#181818;stroke-width:1;" x1="399.5449" x2="399.5449" y1="259.8945" y2="292.0273"/><line style="stroke:#181818;stroke-width:1;" x1="399.5449" x2="489.4824" y1="292.0273" y2="292.0273"/><polygon fill="#181818" points="479.4824,288.0273,489.4824,292.0273,479.4824,296.0273,483.4824,292.0273" style="stroke:#181818;stroke-width:1;stroke-linejoin:miter;stroke-miterlimit:10;"/><line style="stroke:#181818;stroke-width:1;" x1="603.4199" x2="603.4199" y1="274.0273" y2="292.0273"/><line style="stroke:#181818;stroke-width:1;" x1="603.4199" x2="513.4824" y1="292.0273" y2="292.0273"/><polygon fill="#181818" points="523.4824,288.0273,513.4824,292.0273,523.4824,296.0273,519.4824,292.0273" style="stroke:#181818;stroke-width:1;stroke-linejoin:miter;stroke-miterlimit:10;"/><line style="stroke:#181818;stroke-width:1;" x1="501.4824" x2="501.4824" y1="171.7617" y2="191.7617"/><polygon fill="#181818" points="497.4824,181.7617,501.4824,191.7617,505.4824,181.7617,501.4824,185.7617" style="stroke:#181818;stroke-width:1;stroke-linejoin:miter;stroke-miterlimit:10;"/><line style="stroke:#181818;stroke-width:1;" x1="173.9033" x2="173.9033" y1="117.6289" y2="122.6289"/><line style="stroke:#181818;stroke-width:1;" x1="173.9033" x2="501.4824" y1="122.6289" y2="122.6289"/><line style="stroke:#181818;stroke-width:1;" x1="501.4824" x2="501.4824" y1="122.6289" y2="137.6289"/><polygon fill="#181818" points="497.4824,127.6289,501.4824,137.6289,505.4824,127.6289,501.4824,131.6289" style="stroke:#181818;stroke-width:1;stroke-linejoin:miter;stroke-miterlimit:10;"/><line style="stroke:#181818;stroke-width:1;" x1="501.4824" x2="501.4824" y1="304.0273" y2="309.0273"/><line style="stroke:#181818;stroke-width:1;" x1="501.4824" x2="173.9033" y1="309.0273" y2="309.0273"/><line style="stroke:#181818;stroke-width:1;" x1="173.9033" x2="173.9033" y1="309.0273" y2="324.0273"/><polygon fill="#181818" points="169.9033,314.0273,173.9033,324.0273,177.9033,314.0273,173.9033,318.0273" style="stroke:#181818;stroke-width:1;stroke-linejoin:miter;stroke-miterlimit:10;"/><text fill="#000000" font-family="sans-serif" font-size="18" lengthAdjust="spacing" textLength="78.416" x="133.6953" y="34.6992">Registrar</text><text fill="#000000" font-family="sans-serif" font-size="18" lengthAdjust="spacing" textLength="61.8398" x="493.7617" y="34.6992">System</text><?plantuml-src TP31Ji9048Rl-nIJU2a9HfG8fXmC0Zrv0lNaPMq7sD2TRNQcaaPyTxUqaYfwdVbdlc-6TuOAxRM5DvtkDjwLbCrSxZo8ryIXXIIAJocTYdatKi670dZuDNAHZ9AxP5ftdC_GjzNRyMWmggjpewsZx6niiKXkagGJw4uFnyF1TAW-EnAyDpRNX8t4dwWd8pd-1_fKwh34ZU5mepye5kr5nGiIzC1IPk5aI5s6VGX3f2rUeTKc1qRjqos4c9s45QkA1Ur1nO_ExQ0im6f9juOsfoKUqs0NSM-Yp1gYALLD1jQrr7qFP8i44RbUK8wNAAKdG5k4_thaCfU9mfmHeWgv6pa3SMcjzWRvbQB6lDRkmz4xq94oi_vvTVnYSDzYkF5ROOwfW0kVRUedms_-p94OAX6qmFFiydeSUCSzgrPaZj8IZzxrPGsRnHLV?></g></svg>