<svg xmlns="http://www.w3.org/2000/svg" xmlns:xlink="http://www.w3.org/1999/xlink" contentStyleType="text/css" data-diagram-type="ACTIVITY" height="1375px" preserveAspectRatio="none" style="width:1084px;height:1375px;" version="1.1" viewBox="0 0 1084 1375" width="1084px" zoomAndPan="magnify"><?plantuml 1.2026.6?><defs/><g><rect fill="#EEF2FF" height="21.1992" style="stroke:#EEF2FF;stroke-width:1;" width="1037.4363" x="20" y="17.2969"/><ellipse cx="337.9636" cy="53.4961" fill="#222222" rx="10" ry="10" style="stroke:#222222;stroke-width:1;"/><rect fill="#F6F8FA" height="48.2656" rx="12.5" ry="12.5" style="stroke:#57606A;stroke-width:0.5;" width="206.7324" x="234.5974" y="83.4961"/><text fill="#000000" font-family="sans-serif" font-size="12" lengthAdjust="spacing" textLength="124.4766" x="244.5974" y="105.0977">Supply exactly one of</text><text fill="#000000" font-family="sans-serif" font-size="12" lengthAdjust="spacing" textLength="186.7324" x="244.5974" y="119.2305">a student code or a course code</text><ellipse cx="337.9636" cy="296.6885" fill="none" rx="11" ry="11" style="stroke:#222222;stroke-width:1;"/><ellipse cx="337.9636" cy="296.6885" fill="#222222" rx="6" ry="6" style="stroke:#222222;stroke-width:1;"/><rect fill="#F6F8FA" height="62.3984" rx="12.5" ry="12.5" style="stroke:#57606A;stroke-width:0.5;" width="202.6484" x="236.6394" y="398.166"/><text fill="#000000" font-family="sans-serif" font-size="12" lengthAdjust="spacing" textLength="151.1484" x="246.6394" y="419.7676">Report the code as invalid</text><text fill="#000000" font-family="sans-serif" font-size="12" lengthAdjust="spacing" textLength="182.6484" x="246.6394" y="433.9004">(not an empty list, which would</text><text fill="#000000" font-family="sans-serif" font-size="12" lengthAdjust="spacing" textLength="170.2324" x="246.6394" y="448.0332">read as "enrolled in nothing")</text><ellipse cx="337.9636" cy="491.5645" fill="none" rx="11" ry="11" style="stroke:#222222;stroke-width:1;"/><ellipse cx="337.9636" cy="491.5645" fill="#222222" rx="6" ry="6" style="stroke:#222222;stroke-width:1;"/><polygon fill="#EEF2FF" points="235.3032,349.6885,440.624,349.6885,452.624,361.6885,440.624,373.6885,235.3032,373.6885,223.3032,361.6885,235.3032,349.6885" style="stroke:#3730A3;stroke-width:0.5;stroke-linejoin:miter;stroke-miterlimit:10;"/><text fill="#000000" font-family="sans-serif" font-size="11" lengthAdjust="spacing" textLength="13.5835" x="341.9636" y="384.3232">no</text><text fill="#000000" font-family="sans-serif" font-size="11" lengthAdjust="spacing" textLength="205.3208" x="235.3032" y="365.8457">Code matches a real student / course?</text><text fill="#000000" font-family="sans-serif" font-size="11" lengthAdjust="spacing" textLength="17.4829" x="452.624" y="359.3682">yes</text><rect fill="#F6F8FA" height="48.2656" rx="12.5" ry="12.5" style="stroke:#57606A;stroke-width:0.5;" width="199.543" x="238.1921" y="544.5645"/><text fill="#000000" font-family="sans-serif" font-size="12" lengthAdjust="spacing" textLength="179.543" x="248.1921" y="566.166">Resolve the constant side once</text><text fill="#000000" font-family="sans-serif" font-size="12" lengthAdjust="spacing" textLength="159.2168" x="248.1921" y="580.2988">(the student, or the course)</text><rect fill="#F6F8FA" height="34.1328" rx="12.5" ry="12.5" style="stroke:#57606A;stroke-width:0.5;" width="270.9453" x="202.491" y="612.8301"/><text fill="#000000" font-family="sans-serif" font-size="12" lengthAdjust="spacing" textLength="250.9453" x="212.491" y="634.4316">Retrieve one page of matching enrollments</text><rect fill="#F6F8FA" height="34.1328" rx="12.5" ry="12.5" style="stroke:#57606A;stroke-width:0.5;" width="197.1348" x="239.3962" y="666.9629"/><text fill="#000000" font-family="sans-serif" font-size="12" lengthAdjust="spacing" textLength="177.1348" x="249.3962" y="688.5645">Resolve the other side per row</text><rect fill="#F6F8FA" height="62.3984" rx="12.5" ry="12.5" style="stroke:#57606A;stroke-width:0.5;" width="235.1855" x="220.3708" y="721.0957"/><text fill="#000000" font-family="sans-serif" font-size="12" lengthAdjust="spacing" textLength="110.8125" x="230.3708" y="742.6973">Return the page --</text><text fill="#000000" font-family="sans-serif" font-size="12" lengthAdjust="spacing" textLength="215.1855" x="230.3708" y="756.8301">student summary + course summary</text><text fill="#000000" font-family="sans-serif" font-size="12" lengthAdjust="spacing" textLength="133.9746" x="230.3708" y="770.9629">+ enrolled-at, for each</text><rect fill="#F6F8FA" height="34.1328" rx="12.5" ry="12.5" style="stroke:#57606A;stroke-width:0.5;" width="142.7539" x="266.5867" y="803.4941"/><text fill="#000000" font-family="sans-serif" font-size="12" lengthAdjust="spacing" textLength="122.7539" x="276.5867" y="825.0957">View the enrollments</text><polygon fill="#EEF2FF" points="100.9961,857.627,190.7363,857.627,202.7363,869.627,190.7363,881.627,100.9961,881.627,88.9961,869.627,100.9961,857.627" style="stroke:#3730A3;stroke-width:0.5;stroke-linejoin:miter;stroke-miterlimit:10;"/><text fill="#000000" font-family="sans-serif" font-size="11" lengthAdjust="spacing" textLength="17.4829" x="149.8662" y="892.2617">yes</text><text fill="#000000" font-family="sans-serif" font-size="11" lengthAdjust="spacing" textLength="89.7402" x="100.9961" y="873.7842">Select one entry?</text><rect fill="#F6F8FA" height="34.1328" rx="12.5" ry="12.5" style="stroke:#57606A;stroke-width:0.5;" width="117.9805" x="86.876" y="1016.3721"/><text fill="#000000" font-family="sans-serif" font-size="12" lengthAdjust="spacing" textLength="97.9805" x="96.876" y="1037.9736">Return to the list</text><ellipse cx="145.8662" cy="1081.5049" fill="none" rx="11" ry="11" style="stroke:#222222;stroke-width:1;"/><ellipse cx="145.8662" cy="1081.5049" fill="#222222" rx="6" ry="6" style="stroke:#222222;stroke-width:1;"/><rect fill="#F6F8FA" height="34.1328" rx="12.5" ry="12.5" style="stroke:#57606A;stroke-width:0.5;" width="239.7324" x="26" y="1134.5049"/><text fill="#000000" font-family="sans-serif" font-size="12" lengthAdjust="spacing" textLength="219.7324" x="36" y="1156.1064">Display that single enrollment's detail</text><rect fill="#F6F8FA" height="34.1328" rx="12.5" ry="12.5" style="stroke:#57606A;stroke-width:0.5;" width="150.3066" x="70.7129" y="1188.6377"/><text fill="#000000" font-family="sans-serif" font-size="12" lengthAdjust="spacing" textLength="130.3066" x="80.7129" y="1210.2393">View enrollment detail</text><polygon fill="#EEF2FF" points="297.7324,857.627,423.373,857.627,435.373,869.627,423.373,881.627,297.7324,881.627,285.7324,869.627,297.7324,857.627" style="stroke:#3730A3;stroke-width:0.5;stroke-linejoin:miter;stroke-miterlimit:10;"/><text fill="#000000" font-family="sans-serif" font-size="11" lengthAdjust="spacing" textLength="17.4829" x="364.5527" y="892.2617">yes</text><text fill="#000000" font-family="sans-serif" font-size="11" lengthAdjust="spacing" textLength="125.6406" x="297.7324" y="873.7842">Select the student side?</text><rect fill="#F6F8FA" height="48.2656" rx="12.5" ry="12.5" style="stroke:#57606A;stroke-width:0.5;" width="140.9434" x="290.0811" y="913.7617"/><text fill="#000000" font-family="sans-serif" font-size="12" lengthAdjust="spacing" textLength="110.1035" x="300.0811" y="935.3633">Continue at UC-17</text><text fill="#000000" font-family="sans-serif" font-size="12" lengthAdjust="spacing" textLength="120.9434" x="300.0811" y="949.4961">(View Student Detail)</text><polygon fill="#EEF2FF" points="467.373,857.627,587.9272,857.627,599.9272,869.627,587.9272,881.627,467.373,881.627,455.373,869.627,467.373,857.627" style="stroke:#3730A3;stroke-width:0.5;stroke-linejoin:miter;stroke-miterlimit:10;"/><text fill="#000000" font-family="sans-serif" font-size="11" lengthAdjust="spacing" textLength="17.4829" x="531.6501" y="892.2617">yes</text><text fill="#000000" font-family="sans-serif" font-size="11" lengthAdjust="spacing" textLength="120.5542" x="467.373" y="873.7842">Select the course side?</text><text fill="#000000" font-family="sans-serif" font-size="11" lengthAdjust="spacing" textLength="13.5835" x="599.9272" y="867.3066">no</text><rect fill="#F6F8FA" height="48.2656" rx="12.5" ry="12.5" style="stroke:#57606A;stroke-width:0.5;" width="137.2051" x="459.0476" y="913.7617"/><text fill="#000000" font-family="sans-serif" font-size="12" lengthAdjust="spacing" textLength="110.1035" x="469.0476" y="935.3633">Continue at UC-19</text><text fill="#000000" font-family="sans-serif" font-size="12" lengthAdjust="spacing" textLength="117.2051" x="469.0476" y="949.4961">(View Course Detail)</text><path d="M368.9636,1252.7705 L368.9636,1299.7021 L348.9636,1303.7021 L368.9636,1307.7021 L368.9636,1354.6338 A0,0 0 0 0 368.9636,1354.6338 L609.5608,1354.6338 A0,0 0 0 0 609.5608,1354.6338 L609.5608,1262.7705 L599.5608,1252.7705 L368.9636,1252.7705 A0,0 0 0 0 368.9636,1252.7705" fill="#FEFFDD" style="stroke:#181818;stroke-width:0.5;"/><path d="M599.5608,1252.7705 L599.5608,1262.7705 L609.5608,1262.7705 L599.5608,1252.7705" fill="#FEFFDD" style="stroke:#181818;stroke-width:0.5;"/><text fill="#000000" font-family="sans-serif" font-size="13" lengthAdjust="spacing" textLength="192.4736" x="374.9636" y="1270.3389">A Student is not an actor here.</text><text fill="#000000" font-family="sans-serif" font-size="13" lengthAdjust="spacing" textLength="181.5747" x="374.9636" y="1285.6494">They read their own enrolled</text><text fill="#000000" font-family="sans-serif" font-size="13" lengthAdjust="spacing" textLength="219.5972" x="374.9636" y="1300.96">courses through UC-16, where the</text><text fill="#000000" font-family="sans-serif" font-size="13" lengthAdjust="spacing" textLength="210.7993" x="374.9636" y="1316.2705">system identifies them from their</text><text fill="#000000" font-family="sans-serif" font-size="13" lengthAdjust="spacing" textLength="200.1099" x="374.9636" y="1331.5811">sign-in rather than from a code</text><text fill="#000000" font-family="sans-serif" font-size="13" lengthAdjust="spacing" textLength="62.2705" x="374.9636" y="1346.8916">they type.</text><ellipse cx="337.9636" cy="1303.7021" fill="none" rx="11" ry="11" style="stroke:#222222;stroke-width:1;"/><ellipse cx="337.9636" cy="1303.7021" fill="#222222" rx="6" ry="6" style="stroke:#222222;stroke-width:1;"/><line style="stroke:#57606A;stroke-width:1.5;" x1="20" x2="20" y1="17.2969" y2="1354.6338"/><rect fill="#F6F8FA" height="62.3984" rx="12.5" ry="12.5" style="stroke:#57606A;stroke-width:0.5;" width="143.9668" x="867.429" y="200.2393"/><text fill="#000000" font-family="sans-serif" font-size="12" lengthAdjust="spacing" textLength="105.3457" x="877.429" y="221.8408">Reject the request</text><text fill="#000000" font-family="sans-serif" font-size="12" lengthAdjust="spacing" textLength="112.377" x="877.429" y="235.9736">(neither would be a</text><text fill="#000000" font-family="sans-serif" font-size="12" lengthAdjust="spacing" textLength="123.9668" x="877.429" y="250.1064">meaningful question)</text><polygon fill="#EEF2FF" points="867.719,151.7617,1011.1057,151.7617,1023.1057,163.7617,1011.1057,175.7617,867.719,175.7617,855.719,163.7617,867.719,151.7617" style="stroke:#3730A3;stroke-width:0.5;stroke-linejoin:miter;stroke-miterlimit:10;"/><text fill="#000000" font-family="sans-serif" font-size="11" lengthAdjust="spacing" textLength="13.5835" x="943.4124" y="186.3965">no</text><text fill="#000000" font-family="sans-serif" font-size="11" lengthAdjust="spacing" textLength="143.3867" x="867.719" y="167.9189">Exactly one code supplied?</text><text fill="#000000" font-family="sans-serif" font-size="11" lengthAdjust="spacing" textLength="17.4829" x="1023.1057" y="161.4414">yes</text><rect fill="#F6F8FA" height="34.1328" rx="12.5" ry="12.5" style="stroke:#57606A;stroke-width:0.5;" width="159.7578" x="667.436" y="962.2393"/><text fill="#000000" font-family="sans-serif" font-size="12" lengthAdjust="spacing" textLength="139.7578" x="677.436" y="983.8408">Return not-found result</text><polygon fill="#EEF2FF" points="673.5107,913.7617,821.1191,913.7617,833.1191,925.7617,821.1191,937.7617,673.5107,937.7617,661.5107,925.7617,673.5107,913.7617" style="stroke:#3730A3;stroke-width:0.5;stroke-linejoin:miter;stroke-miterlimit:10;"/><text fill="#000000" font-family="sans-serif" font-size="11" lengthAdjust="spacing" textLength="13.5835" x="751.3149" y="948.3965">no</text><text fill="#000000" font-family="sans-serif" font-size="11" lengthAdjust="spacing" textLength="147.6084" x="673.5107" y="929.9189">That enrollment still exists?</text><text fill="#000000" font-family="sans-serif" font-size="11" lengthAdjust="spacing" textLength="17.4829" x="833.1191" y="923.4414">yes</text><line style="stroke:#57606A;stroke-width:1.5;" x1="646.5107" x2="646.5107" y1="17.2969" y2="1354.6338"/><line style="stroke:#57606A;stroke-width:1.5;" x1="1055.5886" x2="1055.5886" y1="17.2969" y2="1354.6338"/><line style="stroke:#181818;stroke-width:1;" x1="337.9636" x2="337.9636" y1="63.4961" y2="83.4961"/><polygon fill="#181818" points="333.9636,73.4961,337.9636,83.4961,341.9636,73.4961,337.9636,77.4961" style="stroke:#181818;stroke-width:1;stroke-linejoin:miter;stroke-miterlimit:10;"/><line style="stroke:#181818;stroke-width:1;" x1="337.9636" x2="337.9636" y1="460.5645" y2="480.5645"/><polygon fill="#181818" points="333.9636,470.5645,337.9636,480.5645,341.9636,470.5645,337.9636,474.5645" style="stroke:#181818;stroke-width:1;stroke-linejoin:miter;stroke-miterlimit:10;"/><line style="stroke:#181818;stroke-width:1;" x1="337.9636" x2="337.9636" y1="373.6885" y2="398.166"/><polygon fill="#181818" points="333.9636,388.166,337.9636,398.166,341.9636,388.166,337.9636,392.166" style="stroke:#181818;stroke-width:1;stroke-linejoin:miter;stroke-miterlimit:10;"/><line style="stroke:#181818;stroke-width:1;" x1="452.624" x2="464.624" y1="361.6885" y2="361.6885"/><polygon fill="#181818" points="460.624,444.8652,464.624,454.8652,468.624,444.8652,464.624,448.8652" style="stroke:#181818;stroke-width:1;stroke-linejoin:miter;stroke-miterlimit:10;"/><line style="stroke:#181818;stroke-width:1;" x1="464.624" x2="464.624" y1="361.6885" y2="524.5645"/><line style="stroke:#181818;stroke-width:1;" x1="464.624" x2="337.9636" y1="524.5645" y2="524.5645"/><line style="stroke:#181818;stroke-width:1;" x1="337.9636" x2="337.9636" y1="524.5645" y2="544.5645"/><polygon fill="#181818" points="333.9636,534.5645,337.9636,544.5645,341.9636,534.5645,337.9636,538.5645" style="stroke:#181818;stroke-width:1;stroke-linejoin:miter;stroke-miterlimit:10;"/><line style="stroke:#181818;stroke-width:1;" x1="337.9636" x2="337.9636" y1="592.8301" y2="612.8301"/><polygon fill="#181818" points="333.9636,602.8301,337.9636,612.8301,341.9636,602.8301,337.9636,606.8301" style="stroke:#181818;stroke-width:1;stroke-linejoin:miter;stroke-miterlimit:10;"/><line style="stroke:#181818;stroke-width:1;" x1="337.9636" x2="337.9636" y1="646.9629" y2="666.9629"/><polygon fill="#181818" points="333.9636,656.9629,337.9636,666.9629,341.9636,656.9629,337.9636,660.9629" style="stroke:#181818;stroke-width:1;stroke-linejoin:miter;stroke-miterlimit:10;"/><line style="stroke:#181818;stroke-width:1;" x1="337.9636" x2="337.9636" y1="701.0957" y2="721.0957"/><polygon fill="#181818" points="333.9636,711.0957,337.9636,721.0957,341.9636,711.0957,337.9636,715.0957" style="stroke:#181818;stroke-width:1;stroke-linejoin:miter;stroke-miterlimit:10;"/><line style="stroke:#181818;stroke-width:1;" x1="337.9636" x2="337.9636" y1="783.4941" y2="803.4941"/><polygon fill="#181818" points="333.9636,793.4941,337.9636,803.4941,341.9636,793.4941,337.9636,797.4941" style="stroke:#181818;stroke-width:1;stroke-linejoin:miter;stroke-miterlimit:10;"/><line style="stroke:#181818;stroke-width:1;" x1="145.8662" x2="145.8662" y1="1050.5049" y2="1070.5049"/><polygon fill="#181818" points="141.8662,1060.5049,145.8662,1070.5049,149.8662,1060.5049,145.8662,1064.5049" style="stroke:#181818;stroke-width:1;stroke-linejoin:miter;stroke-miterlimit:10;"/><line style="stroke:#181818;stroke-width:1;" x1="145.8662" x2="145.8662" y1="1168.6377" y2="1188.6377"/><polygon fill="#181818" points="141.8662,1178.6377,145.8662,1188.6377,149.8662,1178.6377,145.8662,1182.6377" style="stroke:#181818;stroke-width:1;stroke-linejoin:miter;stroke-miterlimit:10;"/><line style="stroke:#181818;stroke-width:1;" x1="145.8662" x2="145.8662" y1="1222.7705" y2="1242.7705"/><polygon fill="#181818" points="141.8662,1232.7705,145.8662,1242.7705,149.8662,1232.7705,145.8662,1236.7705" style="stroke:#181818;stroke-width:1;stroke-linejoin:miter;stroke-miterlimit:10;"/><line style="stroke:#181818;stroke-width:1;" x1="360.5527" x2="360.5527" y1="881.627" y2="913.7617"/><polygon fill="#181818" points="356.5527,903.7617,360.5527,913.7617,364.5527,903.7617,360.5527,907.7617" style="stroke:#181818;stroke-width:1;stroke-linejoin:miter;stroke-miterlimit:10;"/><line style="stroke:#181818;stroke-width:1;" x1="360.5527" x2="360.5527" y1="962.0273" y2="1242.7705"/><polygon fill="#181818" points="356.5527,1232.7705,360.5527,1242.7705,364.5527,1232.7705,360.5527,1236.7705" style="stroke:#181818;stroke-width:1;stroke-linejoin:miter;stroke-miterlimit:10;"/><line style="stroke:#181818;stroke-width:1;" x1="527.6501" x2="527.6501" y1="881.627" y2="913.7617"/><polygon fill="#181818" points="523.6501,903.7617,527.6501,913.7617,531.6501,903.7617,527.6501,907.7617" style="stroke:#181818;stroke-width:1;stroke-linejoin:miter;stroke-miterlimit:10;"/><line style="stroke:#181818;stroke-width:1;" x1="527.6501" x2="527.6501" y1="962.0273" y2="1242.7705"/><polygon fill="#181818" points="523.6501,1232.7705,527.6501,1242.7705,531.6501,1232.7705,527.6501,1236.7705" style="stroke:#181818;stroke-width:1;stroke-linejoin:miter;stroke-miterlimit:10;"/><line style="stroke:#181818;stroke-width:1;" x1="202.7363" x2="285.7324" y1="869.627" y2="869.627"/><polygon fill="#181818" points="275.7324,865.627,285.7324,869.627,275.7324,873.627,279.7324,869.627" style="stroke:#181818;stroke-width:1;stroke-linejoin:miter;stroke-miterlimit:10;"/><line style="stroke:#181818;stroke-width:1;" x1="435.373" x2="455.373" y1="869.627" y2="869.627"/><polygon fill="#181818" points="445.373,865.627,455.373,869.627,445.373,873.627,449.373,869.627" style="stroke:#181818;stroke-width:1;stroke-linejoin:miter;stroke-miterlimit:10;"/><line style="stroke:#181818;stroke-width:1;" x1="337.9636" x2="337.9636" y1="837.627" y2="842.627"/><line style="stroke:#181818;stroke-width:1;" x1="337.9636" x2="145.8662" y1="842.627" y2="842.627"/><line style="stroke:#181818;stroke-width:1;" x1="145.8662" x2="145.8662" y1="842.627" y2="857.627"/><polygon fill="#181818" points="141.8662,847.627,145.8662,857.627,149.8662,847.627,145.8662,851.627" style="stroke:#181818;stroke-width:1;stroke-linejoin:miter;stroke-miterlimit:10;"/><line style="stroke:#181818;stroke-width:1;" x1="599.9272" x2="627.5107" y1="869.627" y2="869.627"/><line style="stroke:#181818;stroke-width:1;" x1="627.5107" x2="627.5107" y1="869.627" y2="1242.7705"/><polygon fill="#181818" points="623.5107,1232.7705,627.5107,1242.7705,631.5107,1232.7705,627.5107,1236.7705" style="stroke:#181818;stroke-width:1;stroke-linejoin:miter;stroke-miterlimit:10;"/><line style="stroke:#181818;stroke-width:1;" x1="145.8662" x2="627.5107" y1="1242.7705" y2="1242.7705"/><line style="stroke:#181818;stroke-width:1;" x1="337.9636" x2="337.9636" y1="1242.7705" y2="1292.7021"/><polygon fill="#181818" points="333.9636,1282.7021,337.9636,1292.7021,341.9636,1282.7021,337.9636,1286.7021" style="stroke:#181818;stroke-width:1;stroke-linejoin:miter;stroke-miterlimit:10;"/><line style="stroke:#181818;stroke-width:1;" x1="939.4124" x2="939.4124" y1="175.7617" y2="200.2393"/><polygon fill="#181818" points="935.4124,190.2393,939.4124,200.2393,943.4124,190.2393,939.4124,194.2393" style="stroke:#181818;stroke-width:1;stroke-linejoin:miter;stroke-miterlimit:10;"/><line style="stroke:#181818;stroke-width:1;" x1="1023.1057" x2="1035.1057" y1="163.7617" y2="163.7617"/><polygon fill="#181818" points="1031.1057,255.6885,1035.1057,265.6885,1039.1057,255.6885,1035.1057,259.6885" style="stroke:#181818;stroke-width:1;stroke-linejoin:miter;stroke-miterlimit:10;"/><line style="stroke:#181818;stroke-width:1;" x1="1035.1057" x2="1035.1057" y1="163.7617" y2="334.6885"/><line style="stroke:#181818;stroke-width:1;" x1="1035.1057" x2="337.9636" y1="334.6885" y2="334.6885"/><line style="stroke:#181818;stroke-width:1;" x1="337.9636" x2="337.9636" y1="334.6885" y2="349.6885"/><polygon fill="#181818" points="333.9636,339.6885,337.9636,349.6885,341.9636,339.6885,337.9636,343.6885" style="stroke:#181818;stroke-width:1;stroke-linejoin:miter;stroke-miterlimit:10;"/><line style="stroke:#181818;stroke-width:1;" x1="747.3149" x2="747.3149" y1="937.7617" y2="962.2393"/><polygon fill="#181818" points="743.3149,952.2393,747.3149,962.2393,751.3149,952.2393,747.3149,956.2393" style="stroke:#181818;stroke-width:1;stroke-linejoin:miter;stroke-miterlimit:10;"/><line style="stroke:#181818;stroke-width:1;" x1="833.1191" x2="845.1191" y1="925.7617" y2="925.7617"/><polygon fill="#181818" points="841.1191,1023.1221,845.1191,1033.1221,849.1191,1023.1221,845.1191,1027.1221" style="stroke:#181818;stroke-width:1;stroke-linejoin:miter;stroke-miterlimit:10;"/><line style="stroke:#181818;stroke-width:1;" x1="845.1191" x2="845.1191" y1="925.7617" y2="1119.5049"/><line style="stroke:#181818;stroke-width:1;" x1="845.1191" x2="145.8662" y1="1119.5049" y2="1119.5049"/><line style="stroke:#181818;stroke-width:1;" x1="145.8662" x2="145.8662" y1="1119.5049" y2="1134.5049"/><polygon fill="#181818" points="141.8662,1124.5049,145.8662,1134.5049,149.8662,1124.5049,145.8662,1128.5049" style="stroke:#181818;stroke-width:1;stroke-linejoin:miter;stroke-miterlimit:10;"/><line style="stroke:#181818;stroke-width:1;" x1="939.4124" x2="939.4124" y1="262.6377" y2="270.6885"/><line style="stroke:#181818;stroke-width:1;" x1="939.4124" x2="337.9636" y1="270.6885" y2="270.6885"/><line style="stroke:#181818;stroke-width:1;" x1="337.9636" x2="337.9636" y1="270.6885" y2="285.6885"/><polygon fill="#181818" points="333.9636,275.6885,337.9636,285.6885,341.9636,275.6885,337.9636,279.6885" style="stroke:#181818;stroke-width:1;stroke-linejoin:miter;stroke-miterlimit:10;"/><line style="stroke:#181818;stroke-width:1;" x1="337.9636" x2="337.9636" y1="131.7617" y2="136.7617"/><line style="stroke:#181818;stroke-width:1;" x1="337.9636" x2="939.4124" y1="136.7617" y2="136.7617"/><line style="stroke:#181818;stroke-width:1;" x1="939.4124" x2="939.4124" y1="136.7617" y2="151.7617"/><polygon fill="#181818" points="935.4124,141.7617,939.4124,151.7617,943.4124,141.7617,939.4124,145.7617" style="stroke:#181818;stroke-width:1;stroke-linejoin:miter;stroke-miterlimit:10;"/><line style="stroke:#181818;stroke-width:1;" x1="747.3149" x2="747.3149" y1="996.3721" y2="1001.3721"/><line style="stroke:#181818;stroke-width:1;" x1="747.3149" x2="145.8662" y1="1001.3721" y2="1001.3721"/><line style="stroke:#181818;stroke-width:1;" x1="145.8662" x2="145.8662" y1="1001.3721" y2="1016.3721"/><polygon fill="#181818" points="141.8662,1006.3721,145.8662,1016.3721,149.8662,1006.3721,145.8662,1010.3721" style="stroke:#181818;stroke-width:1;stroke-linejoin:miter;stroke-miterlimit:10;"/><line style="stroke:#181818;stroke-width:1;" x1="145.8662" x2="145.8662" y1="881.627" y2="885.627"/><line style="stroke:#181818;stroke-width:1;" x1="145.8662" x2="747.3149" y1="885.627" y2="885.627"/><line style="stroke:#181818;stroke-width:1;" x1="747.3149" x2="747.3149" y1="885.627" y2="913.7617"/><polygon fill="#181818" points="743.3149,903.7617,747.3149,913.7617,751.3149,903.7617,747.3149,907.7617" style="stroke:#181818;stroke-width:1;stroke-linejoin:miter;stroke-miterlimit:10;"/><text fill="#000000" font-family="sans-serif" font-size="18" lengthAdjust="spacing" textLength="223.1191" x="221.6958" y="34.6992">Registrar / Course Admin</text><text fill="#000000" font-family="sans-serif" font-size="18" lengthAdjust="spacing" textLength="61.8398" x="820.1298" y="34.6992">System</text><?plantuml-src dLHDSzCm4BtxL-oK0ycqeOKEAIG79gJD3sWBfrnKUsqlbLT6aXCyjF-TbUm4zuF2S8gpshVxthwLt2rnhQogu4QbjuKr3MTBeuq5RnKxEKBsYTjdgTJJXdmBFnE0puyWhrRJrOVL8fmOcw7je-_FfYVJ43qdLHdEdi0kBbRlLgj1mX1zUdPwiZXDxWSat9OghHWx4i-skYQlyK-DxfFaxX8BSgBHmZ4iJMCTmYAhYEyIvvNroUoggMlT0luGoV9hf9t9rwp0-IQJeK1gCWbPKF8LyI4mbz9NhVDOtIMKm-XY08y05yeIPf_6u4ja6B4P2z_P9Nx3r8SOMFpUeFDh7Z6I12niJQCpk45GQwvGCN6HDnfY6XaUpwN22uf0E9iwGIsXKOjkd21db4U2oq2gKZujqOaKYqhl5HxtofvohOtjk4PDoW7nHcdA0cVZGJ5WLSkMQ65q1DkIqh8JiMRfa0N40R8rMcCcM11GAQ8E_bU9K796Rx3dnEAXy7SK7E8KXLOuw7KT1TUwn51RUWhSMy8DHfzgLGIlkwa8A-YOLW9ryuUjJBGdzgdbmvfjLwon7CzZgSbapRkHkgQgb6tXSBSqVM3DXx0Ro4G9nLmueahB-OkxEljAk8sT7d0CnbwX3WiL14dGjdiJuzXaohir1GZfrwNoWo8oAz9QjbyQkqV-nms84iMsIHxkb-oDQxIVnzCN_ViDzYOI3olIuQAr00DpvK-qLq3dv6gjMe6eO2mNUgZvjOCClIBzr_tf9ZOGkiE5jeEv3VOb-ljuVBEbOK_SoFPx-BASl3sJ9OkrhthKUImyVhRopln_AVnnLxYNyg1kvqatfJY_H3oH9uIAqaknnPuDEUXlfZn8ibkoj_WcF9GbjX3lfB0W2sRB-qMKuuweaqDvHuio4fg66otmW0WtCkuHK6X3ESLa-PzRKtKrGmuLF95xRbMyC68YTmaglY2IuGCFtzP2IjG4hlWB?></g></svg>