<svg xmlns="http://www.w3.org/2000/svg" xmlns:xlink="http://www.w3.org/1999/xlink" contentStyleType="text/css" data-diagram-type="DESCRIPTION" height="445px" preserveAspectRatio="none" style="width:672px;height:445px;" version="1.1" viewBox="0 0 672 445" width="672px" zoomAndPan="magnify"><?plantuml 1.2026.6?><defs/><g><!--cluster Student Management--><g class="cluster" data-qualified-name="Student Management" data-source-line="14" id="ent0002"><rect fill="none" height="348" rx="2.5" ry="2.5" style="stroke:#181818;stroke-width:1;" width="544.87" x="113.99" y="7"/><text fill="#000000" font-family="sans-serif" font-size="14" font-weight="700" lengthAdjust="spacing" textLength="152.2773" x="310.2863" y="22.5352">Student Management</text></g><!--entity UC1--><g class="entity" data-qualified-name="Student Management.UC1" data-source-line="15" id="ent0003"><ellipse cx="230.7765" cy="66.0048" fill="#F6F8FA" rx="73.7465" ry="23.8748" style="stroke:#57606A;stroke-width:0.5;"/><text fill="#000000" font-family="sans-serif" font-size="14" lengthAdjust="spacing" textLength="36.3398" x="212.6066" y="58.8185">UC-1</text><text fill="#000000" font-family="sans-serif" font-size="14" lengthAdjust="spacing" textLength="111.7607" x="174.8962" y="75.3068">Register Student</text></g><!--entity UC2--><g class="entity" data-qualified-name="Student Management.UC2" data-source-line="16" id="ent0004"><ellipse cx="230.7781" cy="148.9963" fill="#F6F8FA" rx="100.7881" ry="23.7463" style="stroke:#57606A;stroke-width:0.5;"/><text fill="#000000" font-family="sans-serif" font-size="14" lengthAdjust="spacing" textLength="36.3398" x="212.6082" y="141.5996">UC-2</text><text fill="#000000" font-family="sans-serif" font-size="14" lengthAdjust="spacing" textLength="155.4355" x="153.0603" y="158.0878">Update Student Details</text></g><!--entity UC3--><g class="entity" data-qualified-name="Student Management.UC3" data-source-line="17" id="ent0005"><ellipse cx="230.7767" cy="232.0044" fill="#F6F8FA" rx="72.5367" ry="23.8844" style="stroke:#57606A;stroke-width:0.5;"/><text fill="#000000" font-family="sans-serif" font-size="14" lengthAdjust="spacing" textLength="36.3398" x="212.6068" y="224.8339">UC-3</text><text fill="#000000" font-family="sans-serif" font-size="14" lengthAdjust="spacing" textLength="109.7988" x="175.8773" y="241.3221">Remove Student</text></g><!--entity UC13--><g class="entity" data-qualified-name="Student Management.UC13" data-source-line="18" id="ent0006"><ellipse cx="546.707" cy="309.9953" fill="#F6F8FA" rx="96.147" ry="23.8453" style="stroke:#57606A;stroke-width:0.5;"/><text fill="#000000" font-family="sans-serif" font-size="14" lengthAdjust="spacing" textLength="45.1924" x="524.1108" y="302.7609">UC-13</text><text fill="#000000" font-family="sans-serif" font-size="14" lengthAdjust="spacing" textLength="147.3555" x="473.0292" y="319.2492">View/Search Students</text></g><!--entity UC17--><g class="entity" data-qualified-name="Student Management.UC17" data-source-line="19" id="ent0007"><ellipse cx="230.7817" cy="315.0038" fill="#F6F8FA" rx="86.6717" ry="23.9038" style="stroke:#57606A;stroke-width:0.5;"/><text fill="#000000" font-family="sans-serif" font-size="14" lengthAdjust="spacing" textLength="45.1924" x="208.1855" y="307.865">UC-17</text><text fill="#000000" font-family="sans-serif" font-size="14" lengthAdjust="spacing" textLength="131.9951" x="164.7842" y="324.3533">View Student Detail</text></g><!--entity Registrar--><g class="entity" data-qualified-name="Registrar" data-source-line="12" id="ent0001"><ellipse cx="36.4951" cy="202.26" fill="#EEF2FF" rx="8" ry="8" style="stroke:#3730A3;stroke-width:0.5;"/><path d="M36.4951,210.26 L36.4951,237.26 M23.4951,218.26 L49.4951,218.26 M36.4951,237.26 L23.4951,252.26 M36.4951,237.26 L49.4951,252.26" fill="none" style="stroke:#3730A3;stroke-width:0.5;"/><text fill="#000000" font-family="sans-serif" font-size="14" lengthAdjust="spacing" textLength="60.9902" x="6" y="267.2952">Registrar</text></g><!--link Registrar to UC1--><g class="link" data-entity-1="ent0001" data-entity-2="ent0003" data-link-type="dependency" data-source-line="22" id="lnk8"><path d="M50.21,193.47 C61.06,166.11 79.2,130.41 105.99,108 C123.14,93.66 140.6216,85.579 161.5516,79.289" fill="none" id="Registrar-to-UC1" style="stroke:#181818;stroke-width:1;"/><polygon fill="#181818" points="166.34,77.85,156.5696,76.6095,161.5516,79.289,158.872,84.271,166.34,77.85" style="stroke:#181818;stroke-width:1;stroke-linejoin:miter;stroke-miterlimit:10;"/></g><!--link Registrar to UC2--><g class="link" data-entity-1="ent0001" data-entity-2="ent0004" data-link-type="dependency" data-source-line="23" id="lnk9"><path d="M67.43,212.21 C79.15,204.96 92.91,197.05 105.99,191 C125.15,182.14 141.9751,175.7568 161.6851,169.2068" fill="none" id="Registrar-to-UC2" style="stroke:#181818;stroke-width:1;"/><polygon fill="#181818" points="166.43,167.63,156.6278,166.6724,161.6851,169.2068,159.1507,174.2641,166.43,167.63" style="stroke:#181818;stroke-width:1;stroke-linejoin:miter;stroke-miterlimit:10;"/></g><!--link Registrar to UC3--><g class="link" data-entity-1="ent0001" data-entity-2="ent0005" data-link-type="dependency" data-source-line="24" id="lnk10"><path d="M67.12,232 C91.35,232 121.63,232 153.15,232" fill="none" id="Registrar-to-UC3" style="stroke:#181818;stroke-width:1;"/><polygon fill="#181818" points="158.15,232,149.15,228,153.15,232,149.15,236,158.15,232" style="stroke:#181818;stroke-width:1;stroke-linejoin:miter;stroke-miterlimit:10;"/></g><!--link Registrar to UC13--><g class="link" data-entity-1="ent0001" data-entity-2="ent0006" data-link-type="dependency" data-source-line="25" id="lnk11"><path d="M47.34,270.61 C57.01,299.73 74.96,337.69 105.99,356 C232.75,430.8 411.73,369.723 495.89,333.363" fill="none" id="Registrar-to-UC13" style="stroke:#181818;stroke-width:1;"/><polygon fill="#181818" points="500.48,331.38,490.6317,331.2775,495.89,333.363,493.8045,338.6214,500.48,331.38" style="stroke:#181818;stroke-width:1;stroke-linejoin:miter;stroke-miterlimit:10;"/></g><!--link Registrar to UC17--><g class="link" data-entity-1="ent0001" data-entity-2="ent0007" data-link-type="dependency" data-source-line="26" id="lnk12"><path d="M67.43,251.8 C79.15,259.05 92.91,266.95 105.99,273 C126.38,282.44 144.7582,289.2944 165.4682,296.0744" fill="none" id="Registrar-to-UC17" style="stroke:#181818;stroke-width:1;"/><polygon fill="#181818" points="170.22,297.63,162.9112,291.0284,165.4682,296.0744,160.4222,298.6313,170.22,297.63" style="stroke:#181818;stroke-width:1;stroke-linejoin:miter;stroke-miterlimit:10;"/></g><!--link UC17 to UC13--><g class="link" data-entity-1="ent0007" data-entity-2="ent0006" data-link-type="dependency" data-source-line="28" id="lnk13"><path d="M317.56,313.64 C358.68,312.98 403.0706,312.2804 445.3606,311.6004" fill="none" id="UC17-to-UC13" style="stroke:#181818;stroke-width:1;stroke-dasharray:7,7;"/><polygon fill="#181818" points="450.36,311.52,441.2969,307.6652,445.3606,311.6004,441.4255,315.6642,450.36,311.52" style="stroke:#181818;stroke-width:1;stroke-linejoin:miter;stroke-miterlimit:10;"/><text fill="#000000" font-family="sans-serif" font-size="13" lengthAdjust="spacing" textLength="57.1924" x="362.57" y="308.6284">&#171;extend&#187;</text></g><?plantuml-src RP31ReCm44Jl_eeLFPC6KA6g8YHAmwsNHlIKomQsn0hOaMtQIbN_lIP05PbSB6lspNZMBNqOC18KRuu6QgweCbmAfazSd55X1mUiJesIlQXpsKe5Hg7GTaJ2N56zfWermGy3U7OSTqLSF1RPC96g9ZMf3qcyZZFsUvM2bR6JcndRRH4MXPiH9T4wYsm66wrlr71j6oh6XarGD2s1jpDzRUl2AmfigBDNx_B8NDehSp_OYz5C2YRU0zHGve53XdjHdciqD7FmGWPvgoS-TFXeIExa9pcvaTl0Wk-SlkvtXAewplGS6opuPEIT6ZEU3B_o_n_W--bb5rS95qgqTDsG4iQ64rQhaO0ds6pesv2eq_GF?></g></svg>