<svg xmlns="http://www.w3.org/2000/svg" xmlns:xlink="http://www.w3.org/1999/xlink" contentStyleType="text/css" data-diagram-type="ACTIVITY" height="890px" preserveAspectRatio="none" style="width:639px;height:890px;" version="1.1" viewBox="0 0 639 890" width="639px" zoomAndPan="magnify"><?plantuml 1.2026.6?><defs/><g><rect fill="#EEF2FF" height="21.1992" style="stroke:#EEF2FF;stroke-width:1;" width="592.3748" x="20" y="17.2969"/><ellipse cx="155.332" cy="53.4961" fill="#222222" rx="10" ry="10" style="stroke:#222222;stroke-width:1;"/><rect fill="#F6F8FA" height="34.1328" rx="12.5" ry="12.5" style="stroke:#57606A;stroke-width:0.5;" width="258.6641" x="26" y="83.4961"/><text fill="#000000" font-family="sans-serif" font-size="12" lengthAdjust="spacing" textLength="238.6641" x="36" y="105.0977">Select student and submit updated fields</text><ellipse cx="155.332" cy="268.1494" fill="none" rx="11" ry="11" style="stroke:#222222;stroke-width:1;"/><ellipse cx="155.332" cy="268.1494" fill="#222222" rx="6" ry="6" style="stroke:#222222;stroke-width:1;"/><rect fill="#F6F8FA" height="34.1328" rx="12.5" ry="12.5" style="stroke:#57606A;stroke-width:0.5;" width="142.707" x="83.9785" y="369.627"/><text fill="#000000" font-family="sans-serif" font-size="12" lengthAdjust="spacing" textLength="122.707" x="93.9785" y="391.2285">Reject &#8212; blank name</text><ellipse cx="155.332" cy="443.1934" fill="none" rx="11" ry="11" style="stroke:#222222;stroke-width:1;"/><ellipse cx="155.332" cy="443.1934" fill="#222222" rx="6" ry="6" style="stroke:#222222;stroke-width:1;"/><polygon fill="#EEF2FF" points="49.449,321.1494,261.2151,321.1494,273.2151,333.1494,261.2151,345.1494,49.449,345.1494,37.449,333.1494,49.449,321.1494" style="stroke:#3730A3;stroke-width:0.5;stroke-linejoin:miter;stroke-miterlimit:10;"/><text fill="#000000" font-family="sans-serif" font-size="11" lengthAdjust="spacing" textLength="13.5835" x="159.332" y="355.7842">no</text><text fill="#000000" font-family="sans-serif" font-size="11" lengthAdjust="spacing" textLength="211.7661" x="49.449" y="337.3066">First/last name non-blank (if changed)?</text><rect fill="#F6F8FA" height="34.1328" rx="12.5" ry="12.5" style="stroke:#57606A;stroke-width:0.5;" width="189.4766" x="60.5938" y="544.6709"/><text fill="#000000" font-family="sans-serif" font-size="12" lengthAdjust="spacing" textLength="169.4766" x="70.5938" y="566.2725">Reject &#8212; invalid date of birth</text><ellipse cx="155.332" cy="618.2373" fill="none" rx="11" ry="11" style="stroke:#222222;stroke-width:1;"/><ellipse cx="155.332" cy="618.2373" fill="#222222" rx="6" ry="6" style="stroke:#222222;stroke-width:1;"/><polygon fill="#EEF2FF" points="71.5081,496.1934,239.156,496.1934,251.156,508.1934,239.156,520.1934,71.5081,520.1934,59.5081,508.1934,71.5081,496.1934" style="stroke:#3730A3;stroke-width:0.5;stroke-linejoin:miter;stroke-miterlimit:10;"/><text fill="#000000" font-family="sans-serif" font-size="11" lengthAdjust="spacing" textLength="13.5835" x="159.332" y="530.8281">no</text><text fill="#000000" font-family="sans-serif" font-size="11" lengthAdjust="spacing" textLength="167.6479" x="71.5081" y="512.3506">Date of birth valid (if changed)?</text><rect fill="#F6F8FA" height="48.2656" rx="12.5" ry="12.5" style="stroke:#57606A;stroke-width:0.5;" width="187.0859" x="61.7891" y="671.2373"/><text fill="#000000" font-family="sans-serif" font-size="12" lengthAdjust="spacing" textLength="167.0859" x="71.7891" y="692.8389">Save updated student record</text><text fill="#000000" font-family="sans-serif" font-size="12" lengthAdjust="spacing" textLength="151.6641" x="71.7891" y="706.9717">(student code unchanged)</text><rect fill="#F6F8FA" height="34.1328" rx="12.5" ry="12.5" style="stroke:#57606A;stroke-width:0.5;" width="111.2656" x="99.6992" y="739.5029"/><text fill="#000000" font-family="sans-serif" font-size="12" lengthAdjust="spacing" textLength="91.2656" x="109.6992" y="761.1045">Confirm update</text><rect fill="#F6F8FA" height="34.1328" rx="12.5" ry="12.5" style="stroke:#57606A;stroke-width:0.5;" width="141.6289" x="84.5176" y="793.6357"/><text fill="#000000" font-family="sans-serif" font-size="12" lengthAdjust="spacing" textLength="121.6289" x="94.5176" y="815.2373">Receive confirmation</text><ellipse cx="155.332" cy="858.7686" fill="none" rx="11" ry="11" style="stroke:#222222;stroke-width:1;"/><ellipse cx="155.332" cy="858.7686" fill="#222222" rx="6" ry="6" style="stroke:#222222;stroke-width:1;"/><line style="stroke:#57606A;stroke-width:1.5;" x1="20" x2="20" y1="17.2969" y2="869.7686"/><rect fill="#F6F8FA" height="34.1328" rx="12.5" ry="12.5" style="stroke:#57606A;stroke-width:0.5;" width="208.0625" x="345.3398" y="188.0166"/><text fill="#000000" font-family="sans-serif" font-size="12" lengthAdjust="spacing" textLength="188.0625" x="355.3398" y="209.6182">Reject &#8212; invalid/duplicate email</text><polygon fill="#EEF2FF" points="331.2151,137.6289,567.5271,137.6289,579.5271,150.584,567.5271,163.5391,331.2151,163.5391,319.2151,150.584,331.2151,137.6289" style="stroke:#3730A3;stroke-width:0.5;stroke-linejoin:miter;stroke-miterlimit:10;"/><text fill="#000000" font-family="sans-serif" font-size="11" lengthAdjust="spacing" textLength="13.5835" x="453.3711" y="174.1738">no</text><text fill="#000000" font-family="sans-serif" font-size="11" lengthAdjust="spacing" textLength="236.312" x="331.2151" y="148.2637">Updated email unique across other students</text><text fill="#000000" font-family="sans-serif" font-size="11" lengthAdjust="spacing" textLength="160.5098" x="331.2151" y="161.2188">and well-formed (if changed)?</text><line style="stroke:#57606A;stroke-width:1.5;" x1="304.2151" x2="304.2151" y1="17.2969" y2="869.7686"/><line style="stroke:#57606A;stroke-width:1.5;" x1="610.5271" x2="610.5271" y1="17.2969" y2="869.7686"/><line style="stroke:#181818;stroke-width:1;" x1="155.332" x2="155.332" y1="63.4961" y2="83.4961"/><polygon fill="#181818" points="151.332,73.4961,155.332,83.4961,159.332,73.4961,155.332,77.4961" style="stroke:#181818;stroke-width:1;stroke-linejoin:miter;stroke-miterlimit:10;"/><line style="stroke:#181818;stroke-width:1;" x1="155.332" x2="155.332" y1="403.7598" y2="432.1934"/><polygon fill="#181818" points="151.332,422.1934,155.332,432.1934,159.332,422.1934,155.332,426.1934" style="stroke:#181818;stroke-width:1;stroke-linejoin:miter;stroke-miterlimit:10;"/><line style="stroke:#181818;stroke-width:1;" x1="155.332" x2="155.332" y1="345.1494" y2="369.627"/><polygon fill="#181818" points="151.332,359.627,155.332,369.627,159.332,359.627,155.332,363.627" style="stroke:#181818;stroke-width:1;stroke-linejoin:miter;stroke-miterlimit:10;"/><line style="stroke:#181818;stroke-width:1;" x1="273.2151" x2="285.2151" y1="333.1494" y2="333.1494"/><polygon fill="#181818" points="281.2151,402.1934,285.2151,412.1934,289.2151,402.1934,285.2151,406.1934" style="stroke:#181818;stroke-width:1;stroke-linejoin:miter;stroke-miterlimit:10;"/><line style="stroke:#181818;stroke-width:1;" x1="285.2151" x2="285.2151" y1="333.1494" y2="476.1934"/><line style="stroke:#181818;stroke-width:1;" x1="285.2151" x2="155.332" y1="476.1934" y2="476.1934"/><line style="stroke:#181818;stroke-width:1;" x1="155.332" x2="155.332" y1="476.1934" y2="496.1934"/><polygon fill="#181818" points="151.332,486.1934,155.332,496.1934,159.332,486.1934,155.332,490.1934" style="stroke:#181818;stroke-width:1;stroke-linejoin:miter;stroke-miterlimit:10;"/><line style="stroke:#181818;stroke-width:1;" x1="155.332" x2="155.332" y1="578.8037" y2="607.2373"/><polygon fill="#181818" points="151.332,597.2373,155.332,607.2373,159.332,597.2373,155.332,601.2373" style="stroke:#181818;stroke-width:1;stroke-linejoin:miter;stroke-miterlimit:10;"/><line style="stroke:#181818;stroke-width:1;" x1="155.332" x2="155.332" y1="520.1934" y2="544.6709"/><polygon fill="#181818" points="151.332,534.6709,155.332,544.6709,159.332,534.6709,155.332,538.6709" style="stroke:#181818;stroke-width:1;stroke-linejoin:miter;stroke-miterlimit:10;"/><line style="stroke:#181818;stroke-width:1;" x1="251.156" x2="263.156" y1="508.1934" y2="508.1934"/><polygon fill="#181818" points="259.156,577.2373,263.156,587.2373,267.156,577.2373,263.156,581.2373" style="stroke:#181818;stroke-width:1;stroke-linejoin:miter;stroke-miterlimit:10;"/><line style="stroke:#181818;stroke-width:1;" x1="263.156" x2="263.156" y1="508.1934" y2="651.2373"/><line style="stroke:#181818;stroke-width:1;" x1="263.156" x2="155.332" y1="651.2373" y2="651.2373"/><line style="stroke:#181818;stroke-width:1;" x1="155.332" x2="155.332" y1="651.2373" y2="671.2373"/><polygon fill="#181818" points="151.332,661.2373,155.332,671.2373,159.332,661.2373,155.332,665.2373" style="stroke:#181818;stroke-width:1;stroke-linejoin:miter;stroke-miterlimit:10;"/><line style="stroke:#181818;stroke-width:1;" x1="155.332" x2="155.332" y1="719.5029" y2="739.5029"/><polygon fill="#181818" points="151.332,729.5029,155.332,739.5029,159.332,729.5029,155.332,733.5029" style="stroke:#181818;stroke-width:1;stroke-linejoin:miter;stroke-miterlimit:10;"/><line style="stroke:#181818;stroke-width:1;" x1="155.332" x2="155.332" y1="773.6357" y2="793.6357"/><polygon fill="#181818" points="151.332,783.6357,155.332,793.6357,159.332,783.6357,155.332,787.6357" style="stroke:#181818;stroke-width:1;stroke-linejoin:miter;stroke-miterlimit:10;"/><line style="stroke:#181818;stroke-width:1;" x1="155.332" x2="155.332" y1="827.7686" y2="847.7686"/><polygon fill="#181818" points="151.332,837.7686,155.332,847.7686,159.332,837.7686,155.332,841.7686" style="stroke:#181818;stroke-width:1;stroke-linejoin:miter;stroke-miterlimit:10;"/><line style="stroke:#181818;stroke-width:1;" x1="449.3711" x2="449.3711" y1="163.5391" y2="188.0166"/><polygon fill="#181818" points="445.3711,178.0166,449.3711,188.0166,453.3711,178.0166,449.3711,182.0166" style="stroke:#181818;stroke-width:1;stroke-linejoin:miter;stroke-miterlimit:10;"/><line style="stroke:#181818;stroke-width:1;" x1="579.5271" x2="591.5271" y1="150.584" y2="150.584"/><polygon fill="#181818" points="587.5271,228.8555,591.5271,238.8555,595.5271,228.8555,591.5271,232.8555" style="stroke:#181818;stroke-width:1;stroke-linejoin:miter;stroke-miterlimit:10;"/><line style="stroke:#181818;stroke-width:1;" x1="591.5271" x2="591.5271" y1="150.584" y2="306.1494"/><line style="stroke:#181818;stroke-width:1;" x1="591.5271" x2="155.332" y1="306.1494" y2="306.1494"/><line style="stroke:#181818;stroke-width:1;" x1="155.332" x2="155.332" y1="306.1494" y2="321.1494"/><polygon fill="#181818" points="151.332,311.1494,155.332,321.1494,159.332,311.1494,155.332,315.1494" style="stroke:#181818;stroke-width:1;stroke-linejoin:miter;stroke-miterlimit:10;"/><line style="stroke:#181818;stroke-width:1;" x1="449.3711" x2="449.3711" y1="222.1494" y2="239.6494"/><line style="stroke:#181818;stroke-width:1;" x1="449.3711" x2="155.332" y1="239.6494" y2="239.6494"/><line style="stroke:#181818;stroke-width:1;" x1="155.332" x2="155.332" y1="239.6494" y2="257.1494"/><polygon fill="#181818" points="151.332,247.1494,155.332,257.1494,159.332,247.1494,155.332,251.1494" style="stroke:#181818;stroke-width:1;stroke-linejoin:miter;stroke-miterlimit:10;"/><line style="stroke:#181818;stroke-width:1;" x1="155.332" x2="155.332" y1="117.6289" y2="122.6289"/><line style="stroke:#181818;stroke-width:1;" x1="155.332" x2="449.3711" y1="122.6289" y2="122.6289"/><line style="stroke:#181818;stroke-width:1;" x1="449.3711" x2="449.3711" y1="122.6289" y2="137.6289"/><polygon fill="#181818" points="445.3711,127.6289,449.3711,137.6289,453.3711,127.6289,449.3711,131.6289" style="stroke:#181818;stroke-width:1;stroke-linejoin:miter;stroke-miterlimit:10;"/><text fill="#000000" font-family="sans-serif" font-size="18" lengthAdjust="spacing" textLength="78.416" x="122.8995" y="34.6992">Registrar</text><text fill="#000000" font-family="sans-serif" font-size="18" lengthAdjust="spacing" textLength="61.8398" x="426.4512" y="34.6992">System</text><?plantuml-src bL9BRXin3Dth50IwiHT1WXXr2iyYo6yE4BUxR6Y9OxEMA5VIE0ZY03r4JzYJb1FRmQJDhrloVIdb9SiA4mQOeLtEKsp5NKGV4vI4adL5Kan-Gg4jlEPo1_S6uFmlogTwN7-fpxfDJ8xIRlhvP7mqxgQNZ26A-uTsTLKVrtKFq6UFJaP7PoFpq0kHRpbu5Dg6UD7gAnTFhnaz6BEvfZbdxPWs9XTCnKocvCaMoALrsXbG7EHs5hX0kt9Oo473v5skb3szouN2nd03Ws-xBGLa3wtmZvRqJYdc3B4iAEqbyurqehVa_K4JKr3EG0Ni0cLERdWw14KB32GEjS7achvtUNx__0KiQ_Ji3bsxycpLRMjMAQnV1DGfhWo9u-OnMiqfbqEFkO1W890e1pEztFAZnbjmnttNwxAB5HkOSIeBUCpxd_N0zINUD9nCSKrFxx9_iaHMFyED3FO36vsYP1-XCfEBA0sdiADMpp-2PhB4AcotA2mSfJATxny0?></g></svg>