<svg xmlns="http://www.w3.org/2000/svg" xmlns:xlink="http://www.w3.org/1999/xlink" contentStyleType="text/css" data-diagram-type="ACTIVITY" height="713px" preserveAspectRatio="none" style="width:543px;height:713px;" version="1.1" viewBox="0 0 543 713" width="543px" zoomAndPan="magnify"><?plantuml 1.2026.6?><defs/><g><rect fill="#EEF2FF" height="21.1992" style="stroke:#EEF2FF;stroke-width:1;" width="496.5039" x="20" y="17.2969"/><ellipse cx="152.5576" cy="53.4961" fill="#222222" rx="10" ry="10" style="stroke:#222222;stroke-width:1;"/><rect fill="#F6F8FA" height="34.1328" rx="12.5" ry="12.5" style="stroke:#57606A;stroke-width:0.5;" width="253.1152" x="26" y="83.4961"/><text fill="#000000" font-family="sans-serif" font-size="12" lengthAdjust="spacing" textLength="233.1152" x="36" y="105.0977">Select course and submit updated fields</text><ellipse cx="152.5576" cy="266.2393" fill="none" rx="11" ry="11" style="stroke:#222222;stroke-width:1;"/><ellipse cx="152.5576" cy="266.2393" fill="#222222" rx="6" ry="6" style="stroke:#222222;stroke-width:1;"/><rect fill="#F6F8FA" height="34.1328" rx="12.5" ry="12.5" style="stroke:#57606A;stroke-width:0.5;" width="192.5762" x="56.2695" y="367.7168"/><text fill="#000000" font-family="sans-serif" font-size="12" lengthAdjust="spacing" textLength="172.5762" x="66.2695" y="389.3184">Reject &#8212; non-positive credits</text><ellipse cx="152.5576" cy="441.2832" fill="none" rx="11" ry="11" style="stroke:#222222;stroke-width:1;"/><ellipse cx="152.5576" cy="441.2832" fill="#222222" rx="6" ry="6" style="stroke:#222222;stroke-width:1;"/><polygon fill="#EEF2FF" points="75.3669,319.2393,229.7483,319.2393,241.7483,331.2393,229.7483,343.2393,75.3669,343.2393,63.3669,331.2393,75.3669,319.2393" style="stroke:#3730A3;stroke-width:0.5;stroke-linejoin:miter;stroke-miterlimit:10;"/><text fill="#000000" font-family="sans-serif" font-size="11" lengthAdjust="spacing" textLength="13.5835" x="156.5576" y="353.874">no</text><text fill="#000000" font-family="sans-serif" font-size="11" lengthAdjust="spacing" textLength="154.3813" x="75.3669" y="335.3965">Credits positive (if changed)?</text><rect fill="#F6F8FA" height="48.2656" rx="12.5" ry="12.5" style="stroke:#57606A;stroke-width:0.5;" width="181.5371" x="61.7891" y="494.2832"/><text fill="#000000" font-family="sans-serif" font-size="12" lengthAdjust="spacing" textLength="161.5371" x="71.7891" y="515.8848">Save updated course record</text><text fill="#000000" font-family="sans-serif" font-size="12" lengthAdjust="spacing" textLength="146.1152" x="71.7891" y="530.0176">(course code unchanged)</text><rect fill="#F6F8FA" height="34.1328" rx="12.5" ry="12.5" style="stroke:#57606A;stroke-width:0.5;" width="111.2656" x="96.9248" y="562.5488"/><text fill="#000000" font-family="sans-serif" font-size="12" lengthAdjust="spacing" textLength="91.2656" x="106.9248" y="584.1504">Confirm update</text><rect fill="#F6F8FA" height="34.1328" rx="12.5" ry="12.5" style="stroke:#57606A;stroke-width:0.5;" width="141.6289" x="81.7432" y="616.6816"/><text fill="#000000" font-family="sans-serif" font-size="12" lengthAdjust="spacing" textLength="121.6289" x="91.7432" y="638.2832">Receive confirmation</text><ellipse cx="152.5576" cy="681.8145" fill="none" rx="11" ry="11" style="stroke:#222222;stroke-width:1;"/><ellipse cx="152.5576" cy="681.8145" fill="#222222" rx="6" ry="6" style="stroke:#222222;stroke-width:1;"/><line style="stroke:#57606A;stroke-width:1.5;" x1="20" x2="20" y1="17.2969" y2="692.8145"/><rect fill="#F6F8FA" height="34.1328" rx="12.5" ry="12.5" style="stroke:#57606A;stroke-width:0.5;" width="142.707" x="319.5322" y="186.1064"/><text fill="#000000" font-family="sans-serif" font-size="12" lengthAdjust="spacing" textLength="122.707" x="329.5322" y="207.708">Reject &#8212; blank name</text><polygon fill="#EEF2FF" points="310.1152,137.6289,471.6563,137.6289,483.6563,149.6289,471.6563,161.6289,310.1152,161.6289,298.1152,149.6289,310.1152,137.6289" style="stroke:#3730A3;stroke-width:0.5;stroke-linejoin:miter;stroke-miterlimit:10;"/><text fill="#000000" font-family="sans-serif" font-size="11" lengthAdjust="spacing" textLength="13.5835" x="394.8857" y="172.2637">no</text><text fill="#000000" font-family="sans-serif" font-size="11" lengthAdjust="spacing" textLength="161.541" x="310.1152" y="153.7861">Name non-blank (if changed)?</text><line style="stroke:#57606A;stroke-width:1.5;" x1="283.1152" x2="283.1152" y1="17.2969" y2="692.8145"/><line style="stroke:#57606A;stroke-width:1.5;" x1="514.6563" x2="514.6563" y1="17.2969" y2="692.8145"/><line style="stroke:#181818;stroke-width:1;" x1="152.5576" x2="152.5576" y1="63.4961" y2="83.4961"/><polygon fill="#181818" points="148.5576,73.4961,152.5576,83.4961,156.5576,73.4961,152.5576,77.4961" style="stroke:#181818;stroke-width:1;stroke-linejoin:miter;stroke-miterlimit:10;"/><line style="stroke:#181818;stroke-width:1;" x1="152.5576" x2="152.5576" y1="401.8496" y2="430.2832"/><polygon fill="#181818" points="148.5576,420.2832,152.5576,430.2832,156.5576,420.2832,152.5576,424.2832" style="stroke:#181818;stroke-width:1;stroke-linejoin:miter;stroke-miterlimit:10;"/><line style="stroke:#181818;stroke-width:1;" x1="152.5576" x2="152.5576" y1="343.2393" y2="367.7168"/><polygon fill="#181818" points="148.5576,357.7168,152.5576,367.7168,156.5576,357.7168,152.5576,361.7168" style="stroke:#181818;stroke-width:1;stroke-linejoin:miter;stroke-miterlimit:10;"/><line style="stroke:#181818;stroke-width:1;" x1="241.7483" x2="258.8457" y1="331.2393" y2="331.2393"/><polygon fill="#181818" points="254.8457,400.2832,258.8457,410.2832,262.8457,400.2832,258.8457,404.2832" style="stroke:#181818;stroke-width:1;stroke-linejoin:miter;stroke-miterlimit:10;"/><line style="stroke:#181818;stroke-width:1;" x1="258.8457" x2="258.8457" y1="331.2393" y2="474.2832"/><line style="stroke:#181818;stroke-width:1;" x1="258.8457" x2="152.5576" y1="474.2832" y2="474.2832"/><line style="stroke:#181818;stroke-width:1;" x1="152.5576" x2="152.5576" y1="474.2832" y2="494.2832"/><polygon fill="#181818" points="148.5576,484.2832,152.5576,494.2832,156.5576,484.2832,152.5576,488.2832" style="stroke:#181818;stroke-width:1;stroke-linejoin:miter;stroke-miterlimit:10;"/><line style="stroke:#181818;stroke-width:1;" x1="152.5576" x2="152.5576" y1="542.5488" y2="562.5488"/><polygon fill="#181818" points="148.5576,552.5488,152.5576,562.5488,156.5576,552.5488,152.5576,556.5488" style="stroke:#181818;stroke-width:1;stroke-linejoin:miter;stroke-miterlimit:10;"/><line style="stroke:#181818;stroke-width:1;" x1="152.5576" x2="152.5576" y1="596.6816" y2="616.6816"/><polygon fill="#181818" points="148.5576,606.6816,152.5576,616.6816,156.5576,606.6816,152.5576,610.6816" style="stroke:#181818;stroke-width:1;stroke-linejoin:miter;stroke-miterlimit:10;"/><line style="stroke:#181818;stroke-width:1;" x1="152.5576" x2="152.5576" y1="650.8145" y2="670.8145"/><polygon fill="#181818" points="148.5576,660.8145,152.5576,670.8145,156.5576,660.8145,152.5576,664.8145" style="stroke:#181818;stroke-width:1;stroke-linejoin:miter;stroke-miterlimit:10;"/><line style="stroke:#181818;stroke-width:1;" x1="390.8857" x2="390.8857" y1="161.6289" y2="186.1064"/><polygon fill="#181818" points="386.8857,176.1064,390.8857,186.1064,394.8857,176.1064,390.8857,180.1064" style="stroke:#181818;stroke-width:1;stroke-linejoin:miter;stroke-miterlimit:10;"/><line style="stroke:#181818;stroke-width:1;" x1="483.6563" x2="495.6563" y1="149.6289" y2="149.6289"/><polygon fill="#181818" points="491.6563,227.4229,495.6563,237.4229,499.6563,227.4229,495.6563,231.4229" style="stroke:#181818;stroke-width:1;stroke-linejoin:miter;stroke-miterlimit:10;"/><line style="stroke:#181818;stroke-width:1;" x1="495.6563" x2="495.6563" y1="149.6289" y2="304.2393"/><line style="stroke:#181818;stroke-width:1;" x1="495.6563" x2="152.5576" y1="304.2393" y2="304.2393"/><line style="stroke:#181818;stroke-width:1;" x1="152.5576" x2="152.5576" y1="304.2393" y2="319.2393"/><polygon fill="#181818" points="148.5576,309.2393,152.5576,319.2393,156.5576,309.2393,152.5576,313.2393" style="stroke:#181818;stroke-width:1;stroke-linejoin:miter;stroke-miterlimit:10;"/><line style="stroke:#181818;stroke-width:1;" x1="390.8857" x2="390.8857" y1="220.2393" y2="237.7393"/><line style="stroke:#181818;stroke-width:1;" x1="390.8857" x2="152.5576" y1="237.7393" y2="237.7393"/><line style="stroke:#181818;stroke-width:1;" x1="152.5576" x2="152.5576" y1="237.7393" y2="255.2393"/><polygon fill="#181818" points="148.5576,245.2393,152.5576,255.2393,156.5576,245.2393,152.5576,249.2393" style="stroke:#181818;stroke-width:1;stroke-linejoin:miter;stroke-miterlimit:10;"/><line style="stroke:#181818;stroke-width:1;" x1="152.5576" x2="152.5576" y1="117.6289" y2="122.6289"/><line style="stroke:#181818;stroke-width:1;" x1="152.5576" x2="390.8857" y1="122.6289" y2="122.6289"/><line style="stroke:#181818;stroke-width:1;" x1="390.8857" x2="390.8857" y1="122.6289" y2="137.6289"/><polygon fill="#181818" points="386.8857,127.6289,390.8857,137.6289,394.8857,127.6289,390.8857,131.6289" style="stroke:#181818;stroke-width:1;stroke-linejoin:miter;stroke-miterlimit:10;"/><text fill="#000000" font-family="sans-serif" font-size="18" lengthAdjust="spacing" textLength="187.4443" x="57.8354" y="34.6992">Course Administrator</text><text fill="#000000" font-family="sans-serif" font-size="18" lengthAdjust="spacing" textLength="61.8398" x="367.9658" y="34.6992">System</text><?plantuml-src ZP71JiCm38RlUGfBNBe3qiJ4Xje36cKzSc0SkMI9kvarJfMae8bDuY5uGfw4TEsc2PZ4CVR_-_zY-pLnBPqqi91glNIsOPtRoZe8JhAFBUGW_54bLQ1N2Xju5m1tFomNnRYuAQPjnpgDhgzUJyR3SLkz9saiwr-ssQouAeeJmQbxD1aDfoEnEu7mRsGgoTX1_1drHA72Sq4x8RQvRPn7c6f3J3v-DbYt5Jv85qGwnmfL0DLf96lmpS9GWARMCg26ah3IFejpvXiVq6m5bP0yI8F0bYyNaMuDIQofbUGbwi7j0C8A6HAsWuYNFk9Bc_3ryGcTcACtYvqpO00-s5eWQohtMRb3JS53RJt5a-1_qrgyeqTrG_wRcyvbD1rsq6_7eOeNUEQaVokheuOFA9b8SyibETCRixFBZvWAzrYTGGQod8aMu1i0?></g></svg>