<svg xmlns="http://www.w3.org/2000/svg" xmlns:xlink="http://www.w3.org/1999/xlink" contentStyleType="text/css" data-diagram-type="ACTIVITY" height="680px" preserveAspectRatio="none" style="width:843px;height:680px;" version="1.1" viewBox="0 0 843 680" width="843px" zoomAndPan="magnify"><?plantuml 1.2026.6?><defs/><g><rect fill="#EEF2FF" height="21.1992" style="stroke:#EEF2FF;stroke-width:1;" width="796.3203" x="20" y="17.2969"/><ellipse cx="284.9375" cy="53.4961" fill="#222222" rx="10" ry="10" style="stroke:#222222;stroke-width:1;"/><rect fill="#F6F8FA" height="34.1328" rx="12.5" ry="12.5" style="stroke:#57606A;stroke-width:0.5;" width="195.6699" x="187.1025" y="83.4961"/><text fill="#000000" font-family="sans-serif" font-size="12" lengthAdjust="spacing" textLength="175.6699" x="197.1025" y="105.0977">Enter username and password</text><ellipse cx="284.9375" cy="266.2393" fill="none" rx="11" ry="11" style="stroke:#222222;stroke-width:1;"/><ellipse cx="284.9375" cy="266.2393" fill="#222222" rx="6" ry="6" style="stroke:#222222;stroke-width:1;"/><rect fill="#F6F8FA" height="48.2656" rx="12.5" ry="12.5" style="stroke:#57606A;stroke-width:0.5;" width="177.4941" x="196.1904" y="319.2393"/><text fill="#000000" font-family="sans-serif" font-size="12" lengthAdjust="spacing" textLength="157.4941" x="206.1904" y="340.8408">Start authenticated session</text><text fill="#000000" font-family="sans-serif" font-size="12" lengthAdjust="spacing" textLength="125.5195" x="206.1904" y="354.9736">scoped to actor's role</text><polygon fill="#EEF2FF" points="189.1978,387.5049,380.6772,387.5049,392.6772,399.5049,380.6772,411.5049,189.1978,411.5049,177.1978,399.5049,189.1978,387.5049" style="stroke:#3730A3;stroke-width:0.5;stroke-linejoin:miter;stroke-miterlimit:10;"/><text fill="#000000" font-family="sans-serif" font-size="11" lengthAdjust="spacing" textLength="191.4795" x="189.1978" y="403.6621">Account requires password change?</text><text fill="#000000" font-family="sans-serif" font-size="11" lengthAdjust="spacing" textLength="17.4829" x="159.7148" y="397.1846">yes</text><text fill="#000000" font-family="sans-serif" font-size="11" lengthAdjust="spacing" textLength="13.5835" x="392.6772" y="397.1846">no</text><rect fill="#F6F8FA" height="34.1328" rx="12.5" ry="12.5" style="stroke:#57606A;stroke-width:0.5;" width="223.8066" x="55.2944" y="421.5049"/><text fill="#000000" font-family="sans-serif" font-size="12" lengthAdjust="spacing" textLength="203.8066" x="65.2944" y="443.1064">Indicate password change required</text><rect fill="#F6F8FA" height="34.1328" rx="12.5" ry="12.5" style="stroke:#57606A;stroke-width:0.5;" width="152.334" x="326.5103" y="421.5049"/><text fill="#000000" font-family="sans-serif" font-size="12" lengthAdjust="spacing" textLength="132.334" x="336.5103" y="443.1064">Indicate normal access</text><polygon fill="#EEF2FF" points="284.9375,461.6377,296.9375,473.6377,284.9375,485.6377,272.9375,473.6377,284.9375,461.6377" style="stroke:#3730A3;stroke-width:0.5;stroke-linejoin:miter;stroke-miterlimit:10;"/><polygon fill="#EEF2FF" points="212.3928,505.6377,357.4822,505.6377,369.4822,517.6377,357.4822,529.6377,212.3928,529.6377,200.3928,517.6377,212.3928,505.6377" style="stroke:#3730A3;stroke-width:0.5;stroke-linejoin:miter;stroke-miterlimit:10;"/><text fill="#000000" font-family="sans-serif" font-size="11" lengthAdjust="spacing" textLength="145.0894" x="212.3928" y="521.7949">Password change required?</text><text fill="#000000" font-family="sans-serif" font-size="11" lengthAdjust="spacing" textLength="17.4829" x="182.9099" y="515.3174">yes</text><text fill="#000000" font-family="sans-serif" font-size="11" lengthAdjust="spacing" textLength="13.5835" x="369.4822" y="515.3174">no</text><rect fill="#F6F8FA" height="48.2656" rx="12.5" ry="12.5" style="stroke:#57606A;stroke-width:0.5;" width="259.8652" x="26" y="539.6377"/><text fill="#000000" font-family="sans-serif" font-size="12" lengthAdjust="spacing" textLength="239.8652" x="36" y="561.2393">Continue at UC-22 (Change Password) &#8212;</text><text fill="#000000" font-family="sans-serif" font-size="12" lengthAdjust="spacing" textLength="226.6992" x="36" y="575.3721">no other action available until changed</text><rect fill="#F6F8FA" height="34.1328" rx="12.5" ry="12.5" style="stroke:#57606A;stroke-width:0.5;" width="216.1543" x="305.8652" y="539.6377"/><text fill="#000000" font-family="sans-serif" font-size="12" lengthAdjust="spacing" textLength="196.1543" x="315.8652" y="561.2393">Proceed with role-scoped session</text><polygon fill="#EEF2FF" points="284.9375,593.9033,296.9375,605.9033,284.9375,617.9033,272.9375,605.9033,284.9375,593.9033" style="stroke:#3730A3;stroke-width:0.5;stroke-linejoin:miter;stroke-miterlimit:10;"/><ellipse cx="284.9375" cy="648.9033" fill="none" rx="11" ry="11" style="stroke:#222222;stroke-width:1;"/><ellipse cx="284.9375" cy="648.9033" fill="#222222" rx="6" ry="6" style="stroke:#222222;stroke-width:1;"/><line style="stroke:#57606A;stroke-width:1.5;" x1="20" x2="20" y1="17.2969" y2="659.9033"/><rect fill="#F6F8FA" height="34.1328" rx="12.5" ry="12.5" style="stroke:#57606A;stroke-width:0.5;" width="191.0703" x="566.7109" y="186.1064"/><text fill="#000000" font-family="sans-serif" font-size="12" lengthAdjust="spacing" textLength="171.0703" x="576.7109" y="207.708">Reject &#8212; authentication error</text><polygon fill="#EEF2FF" points="553.0195,137.6289,771.4727,137.6289,783.4727,149.6289,771.4727,161.6289,553.0195,161.6289,541.0195,149.6289,553.0195,137.6289" style="stroke:#3730A3;stroke-width:0.5;stroke-linejoin:miter;stroke-miterlimit:10;"/><text fill="#000000" font-family="sans-serif" font-size="11" lengthAdjust="spacing" textLength="13.5835" x="666.2461" y="172.2637">no</text><text fill="#000000" font-family="sans-serif" font-size="11" lengthAdjust="spacing" textLength="218.4531" x="553.0195" y="153.7861">Username exists and password matches?</text><line style="stroke:#57606A;stroke-width:1.5;" x1="526.0195" x2="526.0195" y1="17.2969" y2="659.9033"/><line style="stroke:#57606A;stroke-width:1.5;" x1="814.4727" x2="814.4727" y1="17.2969" y2="659.9033"/><line style="stroke:#181818;stroke-width:1;" x1="284.9375" x2="284.9375" y1="63.4961" y2="83.4961"/><polygon fill="#181818" points="280.9375,73.4961,284.9375,83.4961,288.9375,73.4961,284.9375,77.4961" style="stroke:#181818;stroke-width:1;stroke-linejoin:miter;stroke-miterlimit:10;"/><line style="stroke:#181818;stroke-width:1;" x1="177.1978" x2="167.1978" y1="399.5049" y2="399.5049"/><line style="stroke:#181818;stroke-width:1;" x1="167.1978" x2="167.1978" y1="399.5049" y2="421.5049"/><polygon fill="#181818" points="163.1978,411.5049,167.1978,421.5049,171.1978,411.5049,167.1978,415.5049" style="stroke:#181818;stroke-width:1;stroke-linejoin:miter;stroke-miterlimit:10;"/><line style="stroke:#181818;stroke-width:1;" x1="392.6772" x2="402.6772" y1="399.5049" y2="399.5049"/><line style="stroke:#181818;stroke-width:1;" x1="402.6772" x2="402.6772" y1="399.5049" y2="421.5049"/><polygon fill="#181818" points="398.6772,411.5049,402.6772,421.5049,406.6772,411.5049,402.6772,415.5049" style="stroke:#181818;stroke-width:1;stroke-linejoin:miter;stroke-miterlimit:10;"/><line style="stroke:#181818;stroke-width:1;" x1="167.1978" x2="167.1978" y1="455.6377" y2="473.6377"/><line style="stroke:#181818;stroke-width:1;" x1="167.1978" x2="272.9375" y1="473.6377" y2="473.6377"/><polygon fill="#181818" points="262.9375,469.6377,272.9375,473.6377,262.9375,477.6377,266.9375,473.6377" style="stroke:#181818;stroke-width:1;stroke-linejoin:miter;stroke-miterlimit:10;"/><line style="stroke:#181818;stroke-width:1;" x1="402.6772" x2="402.6772" y1="455.6377" y2="473.6377"/><line style="stroke:#181818;stroke-width:1;" x1="402.6772" x2="296.9375" y1="473.6377" y2="473.6377"/><polygon fill="#181818" points="306.9375,469.6377,296.9375,473.6377,306.9375,477.6377,302.9375,473.6377" style="stroke:#181818;stroke-width:1;stroke-linejoin:miter;stroke-miterlimit:10;"/><line style="stroke:#181818;stroke-width:1;" x1="284.9375" x2="284.9375" y1="367.5049" y2="387.5049"/><polygon fill="#181818" points="280.9375,377.5049,284.9375,387.5049,288.9375,377.5049,284.9375,381.5049" style="stroke:#181818;stroke-width:1;stroke-linejoin:miter;stroke-miterlimit:10;"/><line style="stroke:#181818;stroke-width:1;" x1="200.3928" x2="155.9326" y1="517.6377" y2="517.6377"/><line style="stroke:#181818;stroke-width:1;" x1="155.9326" x2="155.9326" y1="517.6377" y2="539.6377"/><polygon fill="#181818" points="151.9326,529.6377,155.9326,539.6377,159.9326,529.6377,155.9326,533.6377" style="stroke:#181818;stroke-width:1;stroke-linejoin:miter;stroke-miterlimit:10;"/><line style="stroke:#181818;stroke-width:1;" x1="369.4822" x2="413.9424" y1="517.6377" y2="517.6377"/><line style="stroke:#181818;stroke-width:1;" x1="413.9424" x2="413.9424" y1="517.6377" y2="539.6377"/><polygon fill="#181818" points="409.9424,529.6377,413.9424,539.6377,417.9424,529.6377,413.9424,533.6377" style="stroke:#181818;stroke-width:1;stroke-linejoin:miter;stroke-miterlimit:10;"/><line style="stroke:#181818;stroke-width:1;" x1="155.9326" x2="155.9326" y1="587.9033" y2="605.9033"/><line style="stroke:#181818;stroke-width:1;" x1="155.9326" x2="272.9375" y1="605.9033" y2="605.9033"/><polygon fill="#181818" points="262.9375,601.9033,272.9375,605.9033,262.9375,609.9033,266.9375,605.9033" style="stroke:#181818;stroke-width:1;stroke-linejoin:miter;stroke-miterlimit:10;"/><line style="stroke:#181818;stroke-width:1;" x1="413.9424" x2="413.9424" y1="573.7705" y2="605.9033"/><line style="stroke:#181818;stroke-width:1;" x1="413.9424" x2="296.9375" y1="605.9033" y2="605.9033"/><polygon fill="#181818" points="306.9375,601.9033,296.9375,605.9033,306.9375,609.9033,302.9375,605.9033" style="stroke:#181818;stroke-width:1;stroke-linejoin:miter;stroke-miterlimit:10;"/><line style="stroke:#181818;stroke-width:1;" x1="284.9375" x2="284.9375" y1="485.6377" y2="505.6377"/><polygon fill="#181818" points="280.9375,495.6377,284.9375,505.6377,288.9375,495.6377,284.9375,499.6377" style="stroke:#181818;stroke-width:1;stroke-linejoin:miter;stroke-miterlimit:10;"/><line style="stroke:#181818;stroke-width:1;" x1="284.9375" x2="284.9375" y1="617.9033" y2="637.9033"/><polygon fill="#181818" points="280.9375,627.9033,284.9375,637.9033,288.9375,627.9033,284.9375,631.9033" style="stroke:#181818;stroke-width:1;stroke-linejoin:miter;stroke-miterlimit:10;"/><line style="stroke:#181818;stroke-width:1;" x1="662.2461" x2="662.2461" y1="161.6289" y2="186.1064"/><polygon fill="#181818" points="658.2461,176.1064,662.2461,186.1064,666.2461,176.1064,662.2461,180.1064" style="stroke:#181818;stroke-width:1;stroke-linejoin:miter;stroke-miterlimit:10;"/><line style="stroke:#181818;stroke-width:1;" x1="783.4727" x2="795.4727" y1="149.6289" y2="149.6289"/><polygon fill="#181818" points="791.4727,227.4229,795.4727,237.4229,799.4727,227.4229,795.4727,231.4229" style="stroke:#181818;stroke-width:1;stroke-linejoin:miter;stroke-miterlimit:10;"/><line style="stroke:#181818;stroke-width:1;" x1="795.4727" x2="795.4727" y1="149.6289" y2="304.2393"/><line style="stroke:#181818;stroke-width:1;" x1="795.4727" x2="284.9375" y1="304.2393" y2="304.2393"/><line style="stroke:#181818;stroke-width:1;" x1="284.9375" x2="284.9375" y1="304.2393" y2="319.2393"/><polygon fill="#181818" points="280.9375,309.2393,284.9375,319.2393,288.9375,309.2393,284.9375,313.2393" style="stroke:#181818;stroke-width:1;stroke-linejoin:miter;stroke-miterlimit:10;"/><line style="stroke:#181818;stroke-width:1;" x1="662.2461" x2="662.2461" y1="220.2393" y2="237.7393"/><line style="stroke:#181818;stroke-width:1;" x1="662.2461" x2="284.9375" y1="237.7393" y2="237.7393"/><line style="stroke:#181818;stroke-width:1;" x1="284.9375" x2="284.9375" y1="237.7393" y2="255.2393"/><polygon fill="#181818" points="280.9375,245.2393,284.9375,255.2393,288.9375,245.2393,284.9375,249.2393" style="stroke:#181818;stroke-width:1;stroke-linejoin:miter;stroke-miterlimit:10;"/><line style="stroke:#181818;stroke-width:1;" x1="284.9375" x2="284.9375" y1="117.6289" y2="122.6289"/><line style="stroke:#181818;stroke-width:1;" x1="284.9375" x2="662.2461" y1="122.6289" y2="122.6289"/><line style="stroke:#181818;stroke-width:1;" x1="662.2461" x2="662.2461" y1="122.6289" y2="137.6289"/><polygon fill="#181818" points="658.2461,127.6289,662.2461,137.6289,666.2461,127.6289,662.2461,131.6289" style="stroke:#181818;stroke-width:1;stroke-linejoin:miter;stroke-miterlimit:10;"/><text fill="#000000" font-family="sans-serif" font-size="18" lengthAdjust="spacing" textLength="134.0596" x="205.98" y="34.6992">Actor (any role)</text><text fill="#000000" font-family="sans-serif" font-size="18" lengthAdjust="spacing" textLength="61.8398" x="639.3262" y="34.6992">System</text><?plantuml-src TPB1RXf138RlynIMUYWS8aMWaWeE5QMir5lKDBTSd5adJBFheRO9HILI7w9Fs2UfTxDGIiXnFVzlV_wz-f1uYO8rt69yk9UyudAMgonWWgp-H6n1zogCbXwJRU1d0FXuP7bJZ8htnRHvoLAITDLt5wFpKLFzbB3ENBwmpUV5e2WE18VkuSNmV3eCJmSGkavrXKpF42T7VKrMqMk3daBOJgDvfOUy0SaLzRT13SN2UCv60YibOQm9a4jOekhQnqpSTxLHeteRqXtqhdSY-f7Kz3yjr6XnGVgX3xOWXXxdldEDlz0tYWP_Vlq6N3KlbY9QoWmaacNYcXDi06fv6OZBT1V6LmtfePrAK5BrBZUiCI_zst9pgonljUqnQO6dCNeQ1aBVLqb8_z761V8zxM4tf2tjPn_Oz3yMxZfu95GfxRVRwpbBZPKZHEUQTE2dKc-mBbzf_W9dbdrVNlbL3AvdPuC1z6RFbbsBVfFi3NE6x5Pf_rVF5XynLNXR4VZwgUe67TDVIexasQsJBLg-ioxCBjpT7iqj_W80?></g></svg>